<svg xmlns="http://www.w3.org/2000/svg" viewBox="0 0 90 60" style="enable-background:new 0 0 90 60" xml:space="preserve"><path d="M67.243 8.303v-.02a2.484 2.484 0 0 0-1.034-.22h-2.471a.266.266 0 0 1-.15-.048 94.766 94.766 0 0 0-7.6-4.035C51.27 1.79 47.608.69 44.997.68c-2.612.011-6.27 1.111-10.976 3.3-.942.442-1.876.906-2.8 1.39a84.331 84.331 0 0 0-4.77 2.645.318.318 0 0 1-.165.047h-2.5a2.484 2.484 0 0 0-1.034.221l-.016.016a2.5 2.5 0 0 0-.908.68 2.275 2.275 0 0 0-.474.836v.016c-.121.334-.162.69-.118 1.042l.56 5.543v.016c.03.563.273 1.094.68 1.484a.014.014 0 0 1 .016.016c.35.399.827.666 1.35.758a.276.276 0 0 1 .237.245l1.31 13.826a33.938 33.938 0 0 1-.354 9.152L22.71 55.245a3.186 3.186 0 0 0 .079 1.508h.016c.114.498.35.959.687 1.342h-.016c.33.382.74.687 1.2.892.458.222.96.335 1.469.332h37.7a3.436 3.436 0 0 0 1.484-.332.165.165 0 0 1 .063-.008c.43-.214.814-.512 1.129-.876v-.008c.32-.395.557-.851.695-1.342a3.48 3.48 0 0 0 .079-1.508.1.1 0 0 1-.016-.055l-2.3-13.273a31.916 31.916 0 0 1-.521-6.056c0-1.032.05-2.065.15-3.1l1.327-13.826a.237.237 0 0 1 .087-.158c.04-.051.1-.083.166-.087a2.437 2.437 0 0 0 1.334-.758v-.016c.397-.403.638-.935.679-1.5l.56-5.543c.044-.355.01-.716-.1-1.058v.016a2.5 2.5 0 0 0-.528-.9l-.023-.012h-.016a2.5 2.5 0 0 0-.853-.616m-.174 1.58c.217.233.313.554.26.868l-.544 5.52a1.206 1.206 0 0 1-.355.741.014.014 0 0 0-.016.016 1.2 1.2 0 0 1-.766.261H62.51a.7.7 0 0 0-.505.205h.016a.713.713 0 0 0-.221.521.7.7 0 0 0 .71.705h1.666a.28.28 0 0 1 .258.165.207.207 0 0 1 .032.158l-1.295 13.59c-.1 1.079-.156 2.155-.166 3.23a35.28 35.28 0 0 0 .537 6.284l2.32 13.352c.053.294.045.595-.023.884l-.016.016a2.39 2.39 0 0 1-.4.766h-.008c-.194.222-.43.402-.695.53-.278.124-.58.189-.884.188h-37.7a2.07 2.07 0 0 1-1.571-.719 2.02 2.02 0 0 1-.4-.782v.016a1.808 1.808 0 0 1-.04-.9v-.015l2.315-13.337c.546-3.14.663-6.342.347-9.515L25.51 19.042a.207.207 0 0 1 .032-.158.258.258 0 0 1 .118-.118c.04-.032.09-.049.142-.047h33.022a.706.706 0 0 0 .52-.205.677.677 0 0 0 .206-.5.714.714 0 0 0-.182-.49.122.122 0 0 0-.024-.032.706.706 0 0 0-.521-.205H24.319a1.14 1.14 0 0 1-.734-.26l-.016-.017a1.172 1.172 0 0 1-.371-.742l-.561-5.519c-.041-.322.073-.644.308-.869a.014.014 0 0 1 .016-.016c.205-.232.503-.362.813-.355H66.21c.318-.003.624.126.845.355l.016.016M59.83 8.01a.346.346 0 0 1-.19.054H30.36a.274.274 0 0 1-.174-.055.213.213 0 0 1-.1-.166.26.26 0 0 1 .008-.19.239.239 0 0 1 .134-.134c.336-.184.665-.36.987-.529 2.11-1.12 4.1-2.063 5.969-2.827a22.062 22.062 0 0 1 7.809-2.053 22.3 22.3 0 0 1 7.84 2.053A73.744 73.744 0 0 1 59.79 7.52c.055.03.1.077.126.134.021.061.027.127.016.19a.289.289 0 0 1-.1.166M42.81 29.701a.26.26 0 0 1-.063.008 14.286 14.286 0 0 0-3.08 2.345 12.853 12.853 0 0 0-2.352 3.151.247.247 0 0 0-.047.063 8.697 8.697 0 0 0-.292.592c-.422.88-.715 1.816-.87 2.78v.015a7.4 7.4 0 0 0 .119 3.364h.016a5.519 5.519 0 0 0 1.484 2.622 6.23 6.23 0 0 0 2.06 1.342h-.015c.8.292 1.648.437 2.5.426a9.5 9.5 0 0 0 1.484-.118 11.137 11.137 0 0 0 3.45-1.224 13.213 13.213 0 0 0 3.128-2.36 13.689 13.689 0 0 0 2.353-3.12c.6-1.072 1.014-2.24 1.224-3.45.009-.094.025-.186.047-.277a8.232 8.232 0 0 0-.166-3.1v.016a5.982 5.982 0 0 0-1.532-2.653 5.8 5.8 0 0 0-2.622-1.508 7.59 7.59 0 0 0-3.387-.126 10.4 10.4 0 0 0-3.435 1.208m2.282 6.16c-.022.015-.032.028-.032.038-.006 0-.008.006-.008.016a7.145 7.145 0 0 0-.68 1.074.14.14 0 0 1-.015.063c-.248.442-.445.785-.592 1.027l-.016.016c-.333.44-.692.86-1.074 1.256-.39.409-.819.779-1.28 1.105l-.062.032c-.227.148-.527.324-.9.53a.18.18 0 0 1-.071.04c-.336.171-.66.364-.971.575h-.016a7.886 7.886 0 0 0-1.034.8.369.369 0 0 1-.174.071.287.287 0 0 1-.174-.024.462.462 0 0 1-.118-.134 5.769 5.769 0 0 1-.355-3.466 9.572 9.572 0 0 1 1.058-3.016.014.014 0 0 1 .016-.016 12.2 12.2 0 0 1 2.077-2.787 11.448 11.448 0 0 1 3.466-2.432 8.49 8.49 0 0 1 3.553-.837 5.812 5.812 0 0 1 1.753.261c.48.154.932.39 1.334.695.05.04.089.091.11.15a.315.315 0 0 1 .009.158.287.287 0 0 1-.1.15c-.347.3-.71.58-1.09.837a.648.648 0 0 0-.324.442v.016a.647.647 0 0 0 .087.53l.032.031a.943.943 0 0 0 .205.205.122.122 0 0 1 .047.016c.1.05.212.074.324.071a.732.732 0 0 0 .379-.1 8.23 8.23 0 0 0 1.224-.908.37.37 0 0 1 .166-.079.222.222 0 0 1 .174.047.25.25 0 0 1 .118.134 5.793 5.793 0 0 1 .387 3.42c-.064.31-.137.64-.221.986h-.016a11.229 11.229 0 0 1-2.977 4.856c-.8.807-1.71 1.498-2.7 2.053l-.055.04c-.947.513-1.967.878-3.024 1.082h-.026a6.915 6.915 0 0 1-2.471-.032 4.471 4.471 0 0 1-1.824-.813.219.219 0 0 1-.111-.126.3.3 0 0 1 0-.166.247.247 0 0 1 .095-.15c.284-.277.593-.528.924-.75a.141.141 0 0 1 .079-.039c.27-.174.549-.332.837-.474h-.016c.48-.274.866-.505 1.16-.695a.14.14 0 0 1 .064-.039c.51-.366.988-.776 1.429-1.224a12.3 12.3 0 0 0 1.263-1.492c.2-.294.426-.673.679-1.137 0-.005.005-.008.016-.008.172-.361.375-.707.608-1.034.194-.299.416-.58.663-.837a5.53 5.53 0 0 1 .426-.442l.292-.284a.687.687 0 0 0 .19-.482v-.032a.686.686 0 0 0-.142-.474l-.032-.032a.729.729 0 0 0-.49-.22.635.635 0 0 0-.466.165.1.1 0 0 0-.047.047l-.324.308c-.46.433-.869.916-1.22 1.441l.004-.004z"></path></svg>