<svg xmlns="http://www.w3.org/2000/svg" viewBox="0 0 90 60" fill="#523822" style="enable-background:new 0 0 90 60" xml:space="preserve"><path d="M38.994 13.575v-.024l-.008.041.008-.018m-.374.275.359-.374a.322.322 0 0 1 .091-.099.13.13 0 0 1 .026-.035 13.952 13.952 0 0 1 3.83-2.708.46.46 0 0 1 .14-.065c.71-.35 1.955-.87 3.738-1.555a.44.44 0 0 1 .067-.041.073.073 0 0 1 .034-.01c.869-.332 1.62-.638 2.25-.92h-.007c.37-.178.684-.33.937-.456h.01a.565.565 0 0 0 .21-.234.385.385 0 0 0-.016-.29.421.421 0 0 0-.176-.192 13.87 13.87 0 0 0-.955-.482 16.055 16.055 0 0 0-6.79-1.386A25.089 25.089 0 0 0 31.9 7.476a34.721 34.721 0 0 0-10.12 7.136.273.273 0 0 0-.033.04 35.284 35.284 0 0 0-5.658 7.26v.01a29.256 29.256 0 0 0-3.239 7.681 21.235 21.235 0 0 0-.632 7.41v.008c.18 2.275.894 4.476 2.085 6.423.037.045.082.08.134.106l.008.008a.334.334 0 0 0 .174.048.56.56 0 0 1 .1.01.096.096 0 0 1 .027-.017.575.575 0 0 1 .191-.043h-.018a10.828 10.828 0 0 0 1.886-.772h-.01a.35.35 0 0 1 .1-.033 34.732 34.732 0 0 0 3.18-1.894.623.623 0 0 1 .118-.067 53.144 53.144 0 0 0 3.515-2.568l.033-.032a48.163 48.163 0 0 0 3.44-3.015.337.337 0 0 1 .083-.076c.686-.701 1.304-1.394 1.853-2.076a.584.584 0 0 1 .223-.3 18.833 18.833 0 0 0 2.136-3.918c.32-.82.858-2.36 1.61-4.62a35.313 35.313 0 0 1 1.937-5.015l.016-.05a21.225 21.225 0 0 1 3.466-5.127.482.482 0 0 1 .106-.141l.008-.01m-1.163-.987c-.289.31-.562.623-.822.938a23.036 23.036 0 0 0-1.946 2.75c-.377.631-.722 1.262-1.038 1.894h.017c-.199.4-.404.851-.614 1.354a45.001 45.001 0 0 0-1.23 3.315l-.199.615c-.19.576-.396 1.197-.623 1.86-.27.804-.555 1.602-.855 2.394l-.1.24-.224.532a17.066 17.066 0 0 1-1.687 3.025l-.149.191.015-.007a23.761 23.761 0 0 1-1.901 2.126v.017a48.76 48.76 0 0 1-3.307 2.908 58.556 58.556 0 0 1-3.564 2.584h-.008a38.034 38.034 0 0 1-3.124 1.836l-.938.44a13.614 13.614 0 0 1-1.421-4.993v-.015a18.648 18.648 0 0 1 .258-5.31 26.305 26.305 0 0 1 1.055-3.863 29.53 29.53 0 0 1 1.976-4.32c.135-.239.261-.464.383-.673a34.414 34.414 0 0 1 5.425-6.972 33.425 33.425 0 0 1 9.712-6.862h-.008a28.813 28.813 0 0 1 2.201-.915c.915-.33 1.847-.608 2.792-.83a20.966 20.966 0 0 1 4.839-.581 15.384 15.384 0 0 1 4.736.697 18.53 18.53 0 0 0-.765.307c-.31.116-.606.23-.889.34-1.236.476-2.169.867-2.8 1.17l-.38.194v-.017a16.627 16.627 0 0 0-3.624 2.421c-.242.215-.475.44-.698.673l-.033.049-.474.5.016-.01m21.012 20.44-.008-.008a.666.666 0 0 0-.39-.326.667.667 0 0 0-.525.01l-.009.007a.684.684 0 0 0-.38.374A31.338 31.338 0 0 1 55 37.433c-.311.49-.635.979-.972 1.464l-.01.007c-.242.354-.495.704-.756 1.047a38.867 38.867 0 0 1-3.34 3.914c-.03.029-.057.06-.083.091l-.016.008-.374.342a.024.024 0 0 0-.01.015.669.669 0 0 0-.24.416l-.016.067v.015a.704.704 0 0 0 .015.268.53.53 0 0 0 .118.232v.01a28.318 28.318 0 0 0 2.517 2.882l.015.016c.46.466.932.905 1.414 1.322.564.486 1.143.947 1.735 1.378.73.53 1.49 1.015 2.277 1.455.763.431 1.55.819 2.359 1.156 1.07.452 2.176.813 3.307 1.08 1.794.417 3.65.493 5.471.226a10.502 10.502 0 0 0 3.673-1.306c.166-.092.327-.196.482-.307.105-.07.21-.144.315-.223l.182-.132.026-.026a.894.894 0 0 0 .275-.433v-.034a.73.73 0 0 0-.067-.431.842.842 0 0 0-.232-.283.928.928 0 0 0-.123-.075.184.184 0 0 1-.058-.025l-.316-.14a23.032 23.032 0 0 1-2.502-1.438h-.007a35.156 35.156 0 0 1-5.31-4.255l-.016-.025a18.046 18.046 0 0 1-1.612-1.826c-.8-1.06-1.444-2.23-1.91-3.475-.235-.547-.616-1.627-1.148-3.24-.255-.772-.471-1.4-.65-1.884a.304.304 0 0 1-.064-.159c-.15-.359-.31-.714-.482-1.063a12.44 12.44 0 0 0-.39-.765m-.799 2.643a.397.397 0 0 1 .307.024c.098.046.169.131.2.233.144.4.306.878.49 1.438.532 1.638.921 2.75 1.17 3.331.016.02.028.041.034.065a16.37 16.37 0 0 0 2.07 3.74c.543.698 1.13 1.36 1.76 1.984v.01a35.867 35.867 0 0 0 5.483 4.402c.025.012.05.023.076.033.449.294.874.557 1.278.79a.421.421 0 0 1 .201.391.273.273 0 0 1-.035.132.351.351 0 0 1-.21.198 9.146 9.146 0 0 1-2.33.689 13.53 13.53 0 0 1-4.91-.216 17.42 17.42 0 0 1-2.593-.798c-.92-.36-1.814-.785-2.675-1.27a1.113 1.113 0 0 0-.076-.034 21.87 21.87 0 0 1-2.924-1.977c-.592-.472-1.17-.98-1.735-1.53l-.383-.382a28.54 28.54 0 0 1-1.76-1.927.375.375 0 0 1-.094-.285.36.36 0 0 1 .106-.266 38.277 38.277 0 0 0 3.86-4.668c.08-.105.154-.21.225-.315v-.01a35.07 35.07 0 0 0 2.22-3.587.378.378 0 0 1 .23-.2m17.432-1.878a25.065 25.065 0 0 0-2.228-3.149 28.858 28.858 0 0 0-1.789-1.953 24.704 24.704 0 0 0-4.86-3.856 20.628 20.628 0 0 0-5.193-2.276.707.707 0 0 0-.77.266.008.008 0 0 0-.008.009.646.646 0 0 0-.15.39v.008a22.823 22.823 0 0 1-.455 3.515.275.275 0 0 0-.01.066 27.646 27.646 0 0 1-.448 1.869.678.678 0 0 0-.009.35v.016c.026.112.08.215.158.3.689.833 1.28 1.741 1.763 2.708l.248.517c.161.352.33.76.508 1.22.222.565.451 1.207.688 1.927.532 1.58.903 2.643 1.114 3.192v.007c.403 1.017.93 1.98 1.57 2.867l.065.065c.441.58.926 1.128 1.447 1.638.759.75 1.56 1.455 2.402 2.11.808.638 1.63 1.234 2.466 1.789.049.02.094.048.132.083.273.189.543.368.815.54l.316.182c.374.217.757.418 1.148.603l.056.043c.428.21.874.386 1.33.526a.14.14 0 0 1 .065.017c.133.05.28.056.416.016a.807.807 0 0 0 .441-.331 10.481 10.481 0 0 0 1.494-4.611 15.332 15.332 0 0 0-.474-5.251 20.998 20.998 0 0 0-2.25-5.407m-5.062-4.08.018.016c.74.732 1.434 1.51 2.077 2.327.144.182.284.369.42.557l.317.432.182.266.316.482a19.85 19.85 0 0 1 2.569 5.766c.01.038.014.077.015.117.4 1.513.542 3.085.42 4.644a9.778 9.778 0 0 1-.83 3.133.454.454 0 0 1-.14.167.333.333 0 0 1-.201.065.43.43 0 0 1-.216-.042 12.443 12.443 0 0 1-.273-.133.122.122 0 0 1-.076-.026 15.51 15.51 0 0 1-1.587-.896l-.182-.117-.317-.216-.033-.015a.094.094 0 0 1-.033-.035 39.047 39.047 0 0 1-2.452-1.753.281.281 0 0 1-.074-.066c-.768-.603-1.5-1.25-2.193-1.937-.47-.463-.908-.957-1.313-1.478h-.01a11.784 11.784 0 0 1-1.428-2.608v-.008c-.222-.527-.582-1.556-1.08-3.091v-.008a52.503 52.503 0 0 0-.516-1.463 23.122 23.122 0 0 0-.714-1.736 16.035 16.035 0 0 0-1.894-3.192.377.377 0 0 1-.074-.164.508.508 0 0 1 0-.182c.117-.46.225-.935.323-1.421a.295.295 0 0 1 .026-.084c.157-.749.277-1.507.357-2.269a.415.415 0 0 1 .547-.34 20.61 20.61 0 0 1 3.484 1.684 23.165 23.165 0 0 1 4.56 3.621m-12.162-9.054a17.968 17.968 0 0 0-.715-5.788l-.009-.067a13.73 13.73 0 0 0-2.641-4.859.737.737 0 0 0-.448-.25.68.68 0 0 0-.508.1v.01a22.064 22.064 0 0 1-2.708 1.419.195.195 0 0 1-.066.04c-.404.19-.85.384-1.337.583-.384.157-.77.31-1.158.456l-.065.035a30.522 30.522 0 0 0-3.578 1.474.569.569 0 0 1-.117.04 10.563 10.563 0 0 0-2.775 1.968.437.437 0 0 1-.075.05l-.182.21a.315.315 0 0 1-.058.083 18.078 18.078 0 0 0-2.924 4.32 36.92 36.92 0 0 0-1.754 4.553c-.836 2.515-1.406 4.141-1.711 4.878a20.998 20.998 0 0 1-2.783 4.985.24.24 0 0 1-.076.073 28.256 28.256 0 0 1-2.3 2.63.301.301 0 0 1-.075.068 44.067 44.067 0 0 1-3.713 3.282v.008a61.175 61.175 0 0 1-4.005 2.857.366.366 0 0 1-.067.034 46.506 46.506 0 0 1-4.153 2.384.76.76 0 0 0-.35.35.669.669 0 0 0-.058.472l.008.01c.03.156.122.296.25.39l.008.008a13.525 13.525 0 0 0 4.438 2.3l.058.026a17.22 17.22 0 0 0 5.067.724 22.836 22.836 0 0 0 5.176-.616 28.913 28.913 0 0 0 5.342-1.852 33.865 33.865 0 0 0 5.302-3.052 37.198 37.198 0 0 0 4.867-4.07.88.88 0 0 1 .076-.05l.1-.105c.303-.3.58-.58.83-.847a38.057 38.057 0 0 0 3.764-4.735l.258-.398a32.148 32.148 0 0 0 2.918-5.508c.502-1.24.916-2.515 1.239-3.813l.022-.058c.391-1.55.62-3.138.681-4.736m-2.118-5.365c.516 1.722.738 3.52.656 5.318a21.32 21.32 0 0 1-.656 4.444v.058a27.266 27.266 0 0 1-1.163 3.547 31.63 31.63 0 0 1-3.04 5.692 34.273 34.273 0 0 1-2.269 3.015 34.777 34.777 0 0 1-2.152 2.36.546.546 0 0 1-.057.05l-.05.034a.316.316 0 0 1-.058.082A34.698 34.698 0 0 1 37.207 47a23.83 23.83 0 0 1-9.92 2.325c-1.593.013-3.18-.219-4.702-.688l.007.008c-.83-.251-1.633-.59-2.392-1.013a.357.357 0 0 1-.182-.215.406.406 0 0 1 .182-.491 68.145 68.145 0 0 0 2.675-1.611 58.373 58.373 0 0 0 4.114-2.934.883.883 0 0 1 .076-.048 49.454 49.454 0 0 0 3.786-3.348.751.751 0 0 1 .058-.084c.876-.873 1.697-1.8 2.459-2.775a.434.434 0 0 1 .05-.074 22.786 22.786 0 0 0 3.01-5.376c.297-.775.87-2.409 1.716-4.901a35.89 35.89 0 0 1 1.672-4.37 16.687 16.687 0 0 1 2.683-3.98l.307-.34a9.175 9.175 0 0 1 2.466-1.684.327.327 0 0 1 .067-.025c.7-.35 1.828-.813 3.382-1.387l.547-.216a34.04 34.04 0 0 0 2.105-.89.195.195 0 0 1 .076-.025 35.412 35.412 0 0 0 2.009-1.021.45.45 0 0 1 .283-.041.42.42 0 0 1 .24.167 12.51 12.51 0 0 1 1.775 3.599l-.015.015v.001z"></path></svg>