<svg xmlns="http://www.w3.org/2000/svg" xml:space="preserve" fill="#523822" viewBox="0 0 90 60">
  <path d="M60.9 13.5c0-.2-.1-.4-.2-.5l-.2-.2-7.9-4.3c-.1-.1-.2-.1-.4-.1H37.7c-.1 0-.2 0-.3.1l-8.7 4.4c-.1 0-.2.1-.3.2s-.2.2-.2.3v.2l-3.6 32.6h-4c-.6 0-1.3.3-1.7.8-.5.5-.8 1.2-.8 1.9s.3 1.4.8 1.9 1.2.8 1.9.8h48.3a2.73 2.73 0 0 0 2.7-2.7c0-.7-.3-1.4-.8-1.9-.4-.5-1-.7-1.7-.8h-4zm8.2 34.1s.1 0 0 0c.4 0 .7.1.9.4.2.2.4.6.4.9s-.1.7-.4.9c-.2.2-.5.4-.8.4H20.8c-.3 0-.6-.1-.8-.4-.3-.2-.4-.6-.4-.9s.1-.7.4-.9c.2-.2.5-.4.8-.4zm-9.6-33.3 4.4 31.8H26.1l3.6-31.8zM37.9 9.8H52l5.3 3H32.1z"/>
</svg>
