<svg xmlns="http://www.w3.org/2000/svg" xml:space="preserve" fill="#523822" viewBox="0 0 90 60">
  <path d="M38.994 13.575v-.024l-.008.041zm-.374.275.359-.374a.3.3 0 0 1 .091-.099.1.1 0 0 1 .026-.035 14 14 0 0 1 3.83-2.708.5.5 0 0 1 .14-.065q1.064-.526 3.738-1.555a.4.4 0 0 1 .067-.041.1.1 0 0 1 .034-.01q1.304-.498 2.25-.92h-.007q.556-.267.937-.456h.01a.56.56 0 0 0 .21-.234.4.4 0 0 0-.016-.29.42.42 0 0 0-.176-.192 14 14 0 0 0-.955-.482 16.1 16.1 0 0 0-6.79-1.386A25.1 25.1 0 0 0 31.9 7.476a34.7 34.7 0 0 0-10.12 7.136.3.3 0 0 0-.033.04 35.3 35.3 0 0 0-5.658 7.26v.01a29.3 29.3 0 0 0-3.239 7.681 21.2 21.2 0 0 0-.632 7.41v.008a14.5 14.5 0 0 0 2.085 6.423q.056.067.134.106l.008.008a.33.33 0 0 0 .174.048 1 1 0 0 1 .1.01.1.1 0 0 1 .027-.017.6.6 0 0 1 .191-.043h-.018a11 11 0 0 0 1.886-.772h-.01a.4.4 0 0 1 .1-.033 35 35 0 0 0 3.18-1.894.6.6 0 0 1 .118-.067 53 53 0 0 0 3.515-2.568l.033-.032a48 48 0 0 0 3.44-3.015.3.3 0 0 1 .083-.076 29 29 0 0 0 1.853-2.076.6.6 0 0 1 .223-.3 18.8 18.8 0 0 0 2.136-3.918q.481-1.23 1.61-4.62a35 35 0 0 1 1.937-5.015l.016-.05a21.2 21.2 0 0 1 3.466-5.127.5.5 0 0 1 .106-.141l.008-.01m-1.163-.987q-.433.465-.822.938a23 23 0 0 0-1.946 2.75 29 29 0 0 0-1.038 1.894h.017q-.299.6-.614 1.354a45 45 0 0 0-1.23 3.315l-.199.615q-.284.865-.623 1.86a67 67 0 0 1-.855 2.394l-.1.24-.224.532a17 17 0 0 1-1.687 3.025l-.149.191.015-.007a24 24 0 0 1-1.901 2.126v.017a49 49 0 0 1-3.307 2.908 59 59 0 0 1-3.564 2.584h-.008a38 38 0 0 1-3.124 1.836l-.938.44a13.6 13.6 0 0 1-1.421-4.993v-.015a18.7 18.7 0 0 1 .258-5.31 26 26 0 0 1 1.055-3.863 29.5 29.5 0 0 1 1.976-4.32q.201-.359.383-.673a34.4 34.4 0 0 1 5.425-6.972 33.4 33.4 0 0 1 9.712-6.862h-.008a29 29 0 0 1 2.201-.915q1.374-.496 2.792-.83a21 21 0 0 1 4.839-.581 15.4 15.4 0 0 1 4.736.697 19 19 0 0 0-.765.307q-.465.175-.889.34-1.854.715-2.8 1.17l-.38.194v-.017a16.6 16.6 0 0 0-3.624 2.421q-.363.323-.698.673l-.033.049-.474.5.016-.01m21.012 20.44-.008-.008a.67.67 0 0 0-.39-.326.67.67 0 0 0-.525.01l-.009.007a.68.68 0 0 0-.38.374A31 31 0 0 1 55 37.433q-.466.736-.972 1.464l-.01.007q-.364.532-.756 1.047a39 39 0 0 1-3.34 3.914q-.045.044-.083.091l-.016.008-.374.342a.02.02 0 0 0-.01.015.67.67 0 0 0-.24.416l-.016.067v.015a.7.7 0 0 0 .015.268.53.53 0 0 0 .118.232v.01a28 28 0 0 0 2.517 2.882l.015.016q.69.698 1.414 1.322.846.73 1.735 1.378 1.096.795 2.277 1.455c.763.431 1.55.819 2.359 1.156 1.07.452 2.176.813 3.307 1.08 1.794.417 3.65.493 5.471.226a10.5 10.5 0 0 0 3.673-1.306q.25-.14.482-.307.157-.105.315-.223l.182-.132.026-.026a.9.9 0 0 0 .275-.433v-.034a.73.73 0 0 0-.067-.431.84.84 0 0 0-.232-.283 1 1 0 0 0-.123-.075.2.2 0 0 1-.058-.025l-.316-.14a23 23 0 0 1-2.502-1.438h-.007a35 35 0 0 1-5.31-4.255l-.016-.025a18 18 0 0 1-1.612-1.826c-.8-1.06-1.444-2.23-1.91-3.475q-.351-.82-1.148-3.24-.382-1.158-.65-1.884a.3.3 0 0 1-.064-.159q-.224-.539-.482-1.063a12 12 0 0 0-.39-.765m-.799 2.643a.4.4 0 0 1 .307.024.38.38 0 0 1 .2.233q.215.599.49 1.438.797 2.458 1.17 3.331a.2.2 0 0 1 .034.065 16.4 16.4 0 0 0 2.07 3.74q.815 1.047 1.76 1.984v.01a36 36 0 0 0 5.483 4.402q.037.018.076.033.673.44 1.278.79a.42.42 0 0 1 .201.391.3.3 0 0 1-.035.132.35.35 0 0 1-.21.198 9.2 9.2 0 0 1-2.33.689 13.5 13.5 0 0 1-4.91-.216 17.4 17.4 0 0 1-2.593-.798q-1.382-.541-2.675-1.27l-.076-.034a22 22 0 0 1-2.924-1.977q-.888-.706-1.735-1.53l-.383-.382a29 29 0 0 1-1.76-1.927.38.38 0 0 1-.094-.285.36.36 0 0 1 .106-.266 38 38 0 0 0 3.86-4.668q.12-.157.225-.315v-.01a35 35 0 0 0 2.22-3.587.38.38 0 0 1 .23-.2m17.432-1.878a25 25 0 0 0-2.228-3.149 29 29 0 0 0-1.789-1.953 24.7 24.7 0 0 0-4.86-3.856 20.6 20.6 0 0 0-5.193-2.276.71.71 0 0 0-.77.266.01.01 0 0 0-.008.009.65.65 0 0 0-.15.39v.008a23 23 0 0 1-.455 3.515.3.3 0 0 0-.01.066 28 28 0 0 1-.448 1.869.7.7 0 0 0-.009.35v.016c.026.112.08.215.158.3.689.833 1.28 1.741 1.763 2.708l.248.517q.241.529.508 1.22.333.847.688 1.927.798 2.37 1.114 3.192v.007c.403 1.017.93 1.98 1.57 2.867l.065.065q.663.872 1.447 1.638 1.139 1.126 2.402 2.11 1.212.957 2.466 1.789a.4.4 0 0 1 .132.083q.408.283.815.54l.316.182q.561.325 1.148.603l.056.043c.428.21.874.386 1.33.526a.14.14 0 0 1 .065.017c.133.05.28.056.416.016a.8.8 0 0 0 .441-.331 10.5 10.5 0 0 0 1.494-4.611 15.3 15.3 0 0 0-.474-5.251 21 21 0 0 0-2.25-5.407m-5.062-4.08.018.016a25 25 0 0 1 2.077 2.327q.216.274.42.557l.317.432.182.266.316.482a19.9 19.9 0 0 1 2.569 5.766q.014.057.015.117c.4 1.513.542 3.085.42 4.644a9.8 9.8 0 0 1-.83 3.133.45.45 0 0 1-.14.167.33.33 0 0 1-.201.065.43.43 0 0 1-.216-.042l-.273-.133a.12.12 0 0 1-.076-.026 16 16 0 0 1-1.587-.896l-.182-.117-.317-.216-.033-.015a.1.1 0 0 1-.033-.035 39 39 0 0 1-2.452-1.753.3.3 0 0 1-.074-.066q-1.153-.906-2.193-1.937-.705-.695-1.313-1.478h-.01a11.8 11.8 0 0 1-1.428-2.608v-.008q-.333-.79-1.08-3.091v-.008a53 53 0 0 0-.516-1.463 23 23 0 0 0-.714-1.736 16 16 0 0 0-1.894-3.192.4.4 0 0 1-.074-.164.5.5 0 0 1 0-.182q.176-.691.323-1.421a.3.3 0 0 1 .026-.084q.236-1.125.357-2.269a.415.415 0 0 1 .547-.34 20.6 20.6 0 0 1 3.484 1.684 23.2 23.2 0 0 1 4.56 3.621m-12.162-9.054a18 18 0 0 0-.715-5.788l-.009-.067a13.7 13.7 0 0 0-2.641-4.859.74.74 0 0 0-.448-.25.68.68 0 0 0-.508.1v.01a22 22 0 0 1-2.708 1.419.2.2 0 0 1-.066.04q-.606.285-1.337.583-.576.236-1.158.456l-.065.035a31 31 0 0 0-3.578 1.474.6.6 0 0 1-.117.04 10.6 10.6 0 0 0-2.775 1.968.4.4 0 0 1-.075.05l-.182.21a.3.3 0 0 1-.058.083 18 18 0 0 0-2.924 4.32 37 37 0 0 0-1.754 4.553q-1.254 3.772-1.711 4.878a21 21 0 0 1-2.783 4.985.24.24 0 0 1-.076.073 28 28 0 0 1-2.3 2.63.3.3 0 0 1-.075.068 44 44 0 0 1-3.713 3.282v.008a61 61 0 0 1-4.005 2.857.4.4 0 0 1-.067.034 47 47 0 0 1-4.153 2.384.76.76 0 0 0-.35.35.67.67 0 0 0-.058.472l.008.01c.03.156.122.296.25.39l.008.008a13.5 13.5 0 0 0 4.438 2.3l.058.026a17.2 17.2 0 0 0 5.067.724 22.8 22.8 0 0 0 5.176-.616 29 29 0 0 0 5.342-1.852 34 34 0 0 0 5.302-3.052 37 37 0 0 0 4.867-4.07 1 1 0 0 1 .076-.05l.1-.105q.455-.448.83-.847a38 38 0 0 0 3.764-4.735l.258-.398a32 32 0 0 0 2.918-5.508 28.5 28.5 0 0 0 1.239-3.813l.022-.058c.391-1.55.62-3.138.681-4.736m-2.118-5.365a16 16 0 0 1 .656 5.318 21.3 21.3 0 0 1-.656 4.444v.058a27 27 0 0 1-1.163 3.547 31.6 31.6 0 0 1-3.04 5.692 34 34 0 0 1-2.269 3.015 35 35 0 0 1-2.152 2.36l-.057.05-.05.034a.3.3 0 0 1-.058.082A34.7 34.7 0 0 1 37.207 47a23.8 23.8 0 0 1-9.92 2.325 15.5 15.5 0 0 1-4.702-.688l.007.008c-.83-.251-1.633-.59-2.392-1.013a.36.36 0 0 1-.182-.215.406.406 0 0 1 .182-.491 68 68 0 0 0 2.675-1.611 58 58 0 0 0 4.114-2.934 1 1 0 0 1 .076-.048 50 50 0 0 0 3.786-3.348 1 1 0 0 1 .058-.084q1.315-1.311 2.459-2.775a.4.4 0 0 1 .05-.074 22.8 22.8 0 0 0 3.01-5.376q.446-1.163 1.716-4.901a36 36 0 0 1 1.672-4.37 16.7 16.7 0 0 1 2.683-3.98l.307-.34a9.2 9.2 0 0 1 2.466-1.684.3.3 0 0 1 .067-.025q1.05-.525 3.382-1.387l.547-.216a34 34 0 0 0 2.105-.89.2.2 0 0 1 .076-.025 35 35 0 0 0 2.009-1.021.45.45 0 0 1 .283-.041.42.42 0 0 1 .24.167 12.5 12.5 0 0 1 1.775 3.599z"/>
</svg>
