<svg xmlns="http://www.w3.org/2000/svg" xml:space="preserve" fill="#523822" viewBox="0 0 90 60">
  <path d="M67.243 8.303v-.02a2.5 2.5 0 0 0-1.034-.22h-2.471a.27.27 0 0 1-.15-.048 95 95 0 0 0-7.6-4.035Q48.912.695 44.997.68q-3.917.016-10.976 3.3-1.413.663-2.8 1.39a84 84 0 0 0-4.77 2.645.3.3 0 0 1-.165.047h-2.5a2.5 2.5 0 0 0-1.034.221l-.016.016a2.5 2.5 0 0 0-.908.68 2.3 2.3 0 0 0-.474.836v.016a2.24 2.24 0 0 0-.118 1.042l.56 5.543v.016a2.22 2.22 0 0 0 .68 1.484.014.014 0 0 1 .016.016c.35.399.827.666 1.35.758a.276.276 0 0 1 .237.245l1.31 13.826a34 34 0 0 1-.354 9.152L22.71 55.245a3.2 3.2 0 0 0 .079 1.508h.016c.114.498.35.959.687 1.342h-.016c.33.382.74.687 1.2.892.458.222.96.335 1.469.332h37.7a3.4 3.4 0 0 0 1.484-.332.2.2 0 0 1 .063-.008c.43-.214.814-.512 1.129-.876v-.008c.32-.395.557-.851.695-1.342a3.5 3.5 0 0 0 .079-1.508.1.1 0 0 1-.016-.055l-2.3-13.273a32 32 0 0 1-.521-6.056q0-1.548.15-3.1l1.327-13.826a.24.24 0 0 1 .087-.158c.04-.051.1-.083.166-.087a2.44 2.44 0 0 0 1.334-.758v-.016c.397-.403.638-.935.679-1.5l.56-5.543c.044-.355.01-.716-.1-1.058v.016a2.5 2.5 0 0 0-.528-.9l-.023-.012h-.016a2.5 2.5 0 0 0-.853-.616m-.174 1.58c.217.233.313.554.26.868l-.544 5.52a1.2 1.2 0 0 1-.355.741.014.014 0 0 0-.016.016 1.2 1.2 0 0 1-.766.261H62.51a.7.7 0 0 0-.505.205h.016a.7.7 0 0 0-.221.521.7.7 0 0 0 .71.705h1.666a.28.28 0 0 1 .258.165.2.2 0 0 1 .032.158l-1.295 13.59a39 39 0 0 0-.166 3.23 35.3 35.3 0 0 0 .537 6.284l2.32 13.352c.053.294.045.595-.023.884l-.016.016a2.4 2.4 0 0 1-.4.766h-.008c-.194.222-.43.402-.695.53-.278.124-.58.189-.884.188h-37.7a2.07 2.07 0 0 1-1.571-.719 2 2 0 0 1-.4-.782v.016a1.8 1.8 0 0 1-.04-.9v-.015l2.315-13.337c.546-3.14.663-6.342.347-9.515L25.51 19.042a.2.2 0 0 1 .032-.158.26.26 0 0 1 .118-.118.2.2 0 0 1 .142-.047h33.022a.7.7 0 0 0 .52-.205.68.68 0 0 0 .206-.5.7.7 0 0 0-.182-.49.1.1 0 0 0-.024-.032.7.7 0 0 0-.521-.205H24.319a1.14 1.14 0 0 1-.734-.26l-.016-.017a1.17 1.17 0 0 1-.371-.742l-.561-5.519a1.02 1.02 0 0 1 .308-.869.014.014 0 0 1 .016-.016c.205-.232.503-.362.813-.355H66.21a1.16 1.16 0 0 1 .845.355l.016.016M59.83 8.01a.35.35 0 0 1-.19.054H30.36a.27.27 0 0 1-.174-.055.21.21 0 0 1-.1-.166.26.26 0 0 1 .008-.19.24.24 0 0 1 .134-.134q.504-.276.987-.529 3.165-1.68 5.969-2.827a22.1 22.1 0 0 1 7.809-2.053 22.3 22.3 0 0 1 7.84 2.053A74 74 0 0 1 59.79 7.52c.055.03.1.077.126.134a.4.4 0 0 1 .016.19.3.3 0 0 1-.1.166M42.81 29.701a.3.3 0 0 1-.063.008 14.3 14.3 0 0 0-3.08 2.345 12.9 12.9 0 0 0-2.352 3.151.3.3 0 0 0-.047.063 9 9 0 0 0-.292.592c-.422.88-.715 1.816-.87 2.78v.015a7.4 7.4 0 0 0 .119 3.364h.016a5.5 5.5 0 0 0 1.484 2.622 6.2 6.2 0 0 0 2.06 1.342h-.015c.8.292 1.648.437 2.5.426a9.5 9.5 0 0 0 1.484-.118 11.1 11.1 0 0 0 3.45-1.224 13.2 13.2 0 0 0 3.128-2.36 13.7 13.7 0 0 0 2.353-3.12c.6-1.072 1.014-2.24 1.224-3.45q.014-.14.047-.277a8.2 8.2 0 0 0-.166-3.1v.016a6 6 0 0 0-1.532-2.653 5.8 5.8 0 0 0-2.622-1.508 7.6 7.6 0 0 0-3.387-.126 10.4 10.4 0 0 0-3.435 1.208m2.282 6.16q-.032.023-.032.038-.008 0-.008.016a7 7 0 0 0-.68 1.074.14.14 0 0 1-.015.063q-.372.663-.592 1.027l-.016.016q-.5.661-1.074 1.256-.587.615-1.28 1.105l-.062.032a15 15 0 0 1-.9.53.2.2 0 0 1-.071.04 9 9 0 0 0-.971.575h-.016a8 8 0 0 0-1.034.8.4.4 0 0 1-.174.071.3.3 0 0 1-.174-.024.5.5 0 0 1-.118-.134 5.77 5.77 0 0 1-.355-3.466 9.6 9.6 0 0 1 1.058-3.016.014.014 0 0 1 .016-.016 12.2 12.2 0 0 1 2.077-2.787 11.5 11.5 0 0 1 3.466-2.432 8.5 8.5 0 0 1 3.553-.837 5.8 5.8 0 0 1 1.753.261c.48.154.932.39 1.334.695a.34.34 0 0 1 .11.15.3.3 0 0 1 .009.158.3.3 0 0 1-.1.15q-.52.45-1.09.837a.65.65 0 0 0-.324.442v.016a.65.65 0 0 0 .087.53l.032.031a1 1 0 0 0 .205.205.1.1 0 0 1 .047.016c.1.05.212.074.324.071a.73.73 0 0 0 .379-.1 8 8 0 0 0 1.224-.908.4.4 0 0 1 .166-.079.22.22 0 0 1 .174.047.25.25 0 0 1 .118.134 5.8 5.8 0 0 1 .387 3.42q-.095.466-.221.986h-.016a11.2 11.2 0 0 1-2.977 4.856 12.2 12.2 0 0 1-2.7 2.053l-.055.04c-.947.513-1.967.878-3.024 1.082h-.026a6.9 6.9 0 0 1-2.471-.032 4.5 4.5 0 0 1-1.824-.813.22.22 0 0 1-.111-.126.3.3 0 0 1 0-.166.25.25 0 0 1 .095-.15q.427-.416.924-.75a.14.14 0 0 1 .079-.039q.405-.261.837-.474h-.016q.72-.41 1.16-.695a.14.14 0 0 1 .064-.039q.766-.55 1.429-1.224a12 12 0 0 0 1.263-1.492q.3-.441.679-1.137 0-.008.016-.008.258-.542.608-1.034.292-.45.663-.837a6 6 0 0 1 .426-.442l.292-.284a.7.7 0 0 0 .19-.482v-.032a.7.7 0 0 0-.142-.474l-.032-.032a.73.73 0 0 0-.49-.22.64.64 0 0 0-.466.165.1.1 0 0 0-.047.047l-.324.308c-.46.433-.869.916-1.22 1.441l.004-.004z"/>
</svg>
