<svg xmlns="http://www.w3.org/2000/svg" viewBox="0 0 90 60" style="enable-background:new 0 0 90 60" xml:space="preserve"><path d="M62.857 45.91c9.393-9.036 9.683-23.976.647-33.37s-23.975-9.683-33.369-.647c-.223.214-.441.433-.655.656a22.582 22.582 0 0 0-6.364 11.465v.039l-3.048 20.32a3.98 3.98 0 0 0-.1.68l.008-.032a7.589 7.589 0 0 0-.071 1.042 8.354 8.354 0 0 0 2.535 6.1v.016a8.38 8.38 0 0 0 6.1 2.519c.294 0 .579-.01.853-.032h.016c.235-.015.47-.049.7-.1L52.495 52a.925.925 0 0 0 .1-.024 22.939 22.939 0 0 0 10.257-6.072m5.45-16.686A21.337 21.337 0 0 1 61.81 44.86a21.632 21.632 0 0 1-9.531 5.693l-22.386 2.574h-.055c-.19.031-.377.058-.561.079-.237.016-.482.024-.734.024a6.9 6.9 0 0 1-5.054-2.092h-.016a6.955 6.955 0 0 1-2.092-5.07c0-.29.018-.58.055-.868v-.016a8.109 8.109 0 0 1 .087-.585l3.04-20.277a22.271 22.271 0 0 1 21.6-17.23c12.213.02 22.11 9.913 22.138 22.126m-9.965 12.168c6.73-6.707 6.75-17.601.042-24.332s-17.6-6.75-24.332-.042l-.045.046a16.62 16.62 0 0 0-5.038 12.16c-.01 9.484 7.671 17.18 17.156 17.19h.044c.751 0 1.502-.039 2.25-.118a16.546 16.546 0 0 0 9.918-4.9M61.9 29.222A15.788 15.788 0 0 1 48.24 44.84c-.69.068-1.384.101-2.077.1-8.726-.039-15.769-7.144-15.73-15.87a15.8 15.8 0 0 1 1.39-6.413c.796-1.7 1.89-3.243 3.23-4.556 6.146-6.14 16.105-6.137 22.245.008a15.729 15.729 0 0 1 4.603 11.108l-.001.004z"></path></svg>