<svg width="20" height="21" viewBox="0 0 20 21" fill="none" xmlns="http://www.w3.org/2000/svg">
<path d="M2.85714 0C1.28125 0 0 1.28451 0 2.8644V17.1864C0 18.7663 1.28125 20.0508 2.85714 20.0508H7.24107V13.5253H4.88393V10.0254H7.24107V8.51712C7.24107 4.61885 9 2.81069 12.8214 2.81069C13.5446 2.81069 14.7946 2.95391 15.308 3.09713V6.26588C15.0402 6.23903 14.5714 6.22112 13.9866 6.22112C12.1116 6.22112 11.3884 6.93275 11.3884 8.78118V10.0254H15.1205L14.4777 13.5253H11.3839V20.0508H17.1429C18.7188 20.0508 20 18.7663 20 17.1864V2.8644C20 1.28451 18.7188 0 17.1429 0H2.85714Z" fill="#F9F5F1"/>
</svg>
