<svg xmlns="http://www.w3.org/2000/svg" width="20" height="21" fill="none" viewBox="0 0 20 21">
  <path fill="#F9F5F1" d="M10.002 4.885a5.126 5.126 0 0 0-5.126 5.14 5.126 5.126 0 0 0 5.126 5.141 5.126 5.126 0 0 0 5.127-5.14 5.126 5.126 0 0 0-5.127-5.141m0 8.483a3.344 3.344 0 0 1-3.333-3.343 3.34 3.34 0 0 1 3.333-3.342 3.34 3.34 0 0 1 3.333 3.342 3.344 3.344 0 0 1-3.333 3.343m6.532-8.694a1.195 1.195 0 1 1-2.391 0c0-.662.535-1.199 1.195-1.199s1.196.537 1.196 1.2m3.396 1.217c-.076-1.606-.442-3.029-1.615-4.2C17.145.517 15.727.15 14.125.07c-1.65-.094-6.6-.094-8.25 0-1.597.076-3.016.442-4.19 1.615C.512 2.858.151 4.28.07 5.886c-.093 1.656-.093 6.618 0 8.273.076 1.607.442 3.03 1.615 4.202s2.588 1.539 4.19 1.62c1.65.093 6.6.093 8.25 0 1.602-.077 3.02-.444 4.19-1.62 1.168-1.172 1.534-2.595 1.615-4.202.093-1.655.093-6.612 0-8.268m-2.133 10.045a3.38 3.38 0 0 1-1.9 1.906c-1.317.523-4.44.402-5.895.402s-4.582.117-5.894-.402a3.38 3.38 0 0 1-1.9-1.906c-.523-1.32-.402-4.452-.402-5.91 0-1.46-.116-4.596.401-5.91a3.38 3.38 0 0 1 1.901-1.907c1.316-.523 4.44-.403 5.894-.403 1.455 0 4.583-.116 5.894.403a3.38 3.38 0 0 1 1.901 1.906c.522 1.32.401 4.452.401 5.91s.121 4.595-.401 5.91"/>
</svg>
