<svg xmlns="http://www.w3.org/2000/svg" width="654" height="223" fill="none" viewBox="0 0 654 223">
  <path fill="#F9F5F1" d="M51.71 196.78c15.952 16.811 38.113 26.268 61.276 26.22 45.754 0 88.595-33.909 99.866-43.509a10.5 10.5 0 0 0 1.385-1.146c.048-.048.095-.048.095-.048 10.412-9.075 28.131-30.137 30.089-69.252 1.719-34.291-12.274-52.345-25.981-57.79-7.69-3.056-15.331-1.957-19.391 2.866-1.958 2.293-5.731 8.788.86 19.869 8.979 14.327 6.4 33.002-6.161 44.368a339 339 0 0 0-29.659-33.91C128.269 48.63 84.617 19.83 70.432 34.016a6.7 6.7 0 0 0-1.003 1.29l-.286.286c-1.147 1.29-2.627 3.104-4.347 5.253A45.94 45.94 0 0 0 39.293 26.23c-9.791-1.29-19.63 2.292-26.316 9.552C2.183 46.05-2.353 61.333 1.18 75.804c2.436 9.648 7.546 18.388 14.663 25.313 3.82 3.773 8.071 7.116 12.656 9.839-6.59 27.796-3.82 58.84 23.211 85.824M30.314 59.136c.812-1.72 2.245-3.056 4.012-3.677a5.93 5.93 0 0 1 4.585.573 30.9 30.9 0 0 1 9.217 8.74 192 192 0 0 0-9.743 18.292c-6.447-5.445-12.99-14.567-8.071-23.928M57.44 191.001c-49-49.002-9.98-113.764 10.08-140.414a53 53 0 0 0 2.818 8.836c7.546 18.626 26.41 44.13 50.482 68.201l2.722 2.674c24.31 23.785 54.446 46.28 74.362 50.626-26.65 20.059-91.46 59.078-140.461 10.077M80.415 61.906c12.179.287 23.545 6.113 30.948 15.809 5.54 7.403 5.493 16.668 5.493 25.599 0 2.866 0 5.731.191 8.597a227.2 227.2 0 0 1-36.632-50.005m126.468 7.833c-2.722-4.537-3.343-8.454-1.672-10.412 3.009-2.149 6.973-2.388 10.173-.573 10.555 4.203 22.352 19.773 20.823 49.814-1.815 36.058-17.91 55.305-27.318 63.52-.096.048-.096.143-.191.239-.048.095-.239.095-.287.191-.191.095-.43.239-.621.382-4.155 2.149-14.614-.669-29.085-9.17 12.56-2.913 23.879-9.838 32.237-19.725a3.95 3.95 0 0 0 .765-4.059c-.526-1.385-1.72-2.436-3.2-2.627-1.481-.239-2.961.382-3.869 1.528-9.218 10.555-22.113 17.146-36.059 18.483-8.357-5.779-16.429-12.035-24.07-18.769 2.101.286 4.25.477 6.638.621 15.713 1.48 31.378-2.723 44.273-11.797l.048-.048c18.483-13.134 23.45-38.399 11.415-57.598M158.31 90.132c10.364 10.364 20.059 21.397 28.943 33.05-10.794 6.209-23.212 8.931-35.629 7.88-10.937-.573-18.149-2.817-22.018-6.829-4.632-4.776-4.632-12.227-4.584-20.919 0-9.79.047-20.919-7.117-30.518a49.6 49.6 0 0 0-40.978-19.152c-3.056-8.597-1.91-12.179-1.241-13.325l.095-.191c.096-.191.239-.334.382-.478 6.639-6.495 41.074 9.457 82.147 50.482M21.574 95.386A45.64 45.64 0 0 1 9.109 73.942a33.71 33.71 0 0 1 9.695-32.43c4.92-5.444 12.179-8.118 19.486-7.259a39.1 39.1 0 0 1 21.54 13.039 254 254 0 0 0-7.069 10.173 34.1 34.1 0 0 0-9.886-8.597 13.87 13.87 0 0 0-10.842-1.194 14.9 14.9 0 0 0-8.835 7.641c-7.021 13.182.907 27.128 11.94 35.486a137 137 0 0 0-4.251 11.988c-3.439-2.102-6.495-4.585-9.313-7.403"/>
  <path fill="#F9F5F1" d="M69.047 139.326c-14.28 14.232-16.859 34.864-5.778 45.992 1.337 1.29 2.817 2.436 4.441 3.344.048.047.143.047.191.095a25.9 25.9 0 0 0 13.134 3.391c10.698-.382 20.823-4.919 28.178-12.656 14.281-14.233 16.86-34.865 5.779-45.993s-31.712-8.406-45.945 5.827m5.78 5.779c5.826-6.209 13.897-9.934 22.399-10.364 1.862 0 3.725.286 5.54.86-1.242 2.483-2.006 5.205-2.293 7.975-.286 6.4-5.444 11.558-11.844 11.845-9.982.812-17.958 8.74-18.77 18.769a15.3 15.3 0 0 1-1.241 4.824c-7.355-8.071-4.633-23.116 6.208-33.909m28.655 28.703c-8.549 8.549-19.63 12.036-27.94 9.552a23.2 23.2 0 0 0 2.341-8.023c.287-6.4 5.445-11.558 11.844-11.845 9.982-.812 17.958-8.74 18.77-18.769a15.3 15.3 0 0 1 1.242-4.824c7.307 8.071 4.632 23.068-6.257 33.909m75.223-132.581c1.576.382 3.152.62 4.776.62a13.2 13.2 0 0 0 9.408-3.581c3.439-3.869 4.585-9.266 2.961-14.185a32.8 32.8 0 0 0-8.74-14.615 32.8 32.8 0 0 0-14.614-8.74C167.576-.897 162.179.25 158.31 3.688c-3.439 3.868-4.585 9.265-2.961 14.184a32.8 32.8 0 0 0 8.74 14.615c4.012 4.203 9.027 7.211 14.615 8.74m-14.615-31.76a5 5 0 0 1 3.63-1.195c.955 0 1.91.144 2.865.383 4.108 1.194 7.833 3.486 10.842 6.59a24.25 24.25 0 0 1 6.591 10.842c.812 2.15.525 4.585-.812 6.448-1.863 1.337-4.299 1.671-6.448.811-4.107-1.194-7.832-3.486-10.841-6.59-3.105-2.962-5.397-6.687-6.591-10.794-.908-2.197-.621-4.633.764-6.496M584.92 60.101q0-10.008 3.724-17.572 3.84-7.564 10.357-11.637t14.546-4.073q6.865 0 11.986 2.793 5.236 2.793 8.029 7.332V27.75h19.9v64.935h-19.9V83.49q-2.908 4.539-8.146 7.332-5.12 2.792-11.986 2.792-7.913 0-14.429-4.072-6.517-4.19-10.357-11.754-3.724-7.68-3.724-17.688m48.642.116q0-7.447-4.189-11.753-4.072-4.305-10.008-4.306-5.934 0-10.124 4.306-4.073 4.19-4.073 11.637 0 7.448 4.073 11.87 4.19 4.305 10.124 4.305 5.936 0 10.008-4.305 4.19-4.305 4.189-11.754m-79.668 33.399q-8.495 0-15.128-2.909-6.633-2.91-10.474-7.913-3.84-5.12-4.305-11.404h19.666q.35 3.375 3.142 5.47 2.793 2.094 6.866 2.094 3.724 0 5.702-1.397 2.095-1.512 2.095-3.84 0-2.793-2.909-4.073-2.91-1.396-9.426-3.025-6.982-1.629-11.637-3.375-4.656-1.862-8.03-5.702-3.375-3.957-3.375-10.59 0-5.586 3.026-10.124 3.142-4.655 9.077-7.331 6.051-2.676 14.313-2.677 12.22 0 19.201 6.052 7.1 6.051 8.146 16.058h-18.386q-.466-3.375-3.026-5.352-2.443-1.98-6.517-1.979-3.49 0-5.353 1.397-1.861 1.28-1.861 3.607 0 2.793 2.909 4.19 3.026 1.395 9.309 2.792 7.215 1.863 11.754 3.724 4.538 1.745 7.913 5.819 3.491 3.956 3.607 10.706 0 5.702-3.258 10.24-3.142 4.422-9.193 6.982-5.935 2.56-13.848 2.56m-37.218-65.867v64.934h-19.9v-8.844q-3.026 4.305-8.262 6.982-5.12 2.56-11.404 2.56-7.447 0-13.15-3.258-5.702-3.375-8.844-9.659t-3.142-14.778V27.748h19.783v35.26q0 6.518 3.375 10.124 3.374 3.608 9.076 3.608 5.819 0 9.194-3.608 3.374-3.608 3.374-10.124v-35.26zM373.109 60.101q0-10.008 3.724-17.572 3.84-7.564 10.357-11.637t14.546-4.073q6.866 0 11.986 2.793 5.237 2.793 8.03 7.332V27.75h19.899v64.935h-19.899V83.49q-2.91 4.539-8.146 7.332-5.12 2.792-11.986 2.792-7.913 0-14.43-4.072-6.517-4.19-10.357-11.754-3.724-7.68-3.724-17.688m48.643.116q0-7.447-4.189-11.753-4.074-4.305-10.008-4.306-5.936 0-10.124 4.306-4.073 4.19-4.073 11.637 0 7.448 4.073 11.87 4.188 4.305 10.124 4.305 5.934 0 10.008-4.305 4.188-4.305 4.189-11.754m-51.555-22.931q0 7.099-3.258 13.033-3.258 5.82-10.008 9.426-6.75 3.608-16.757 3.608h-12.335v29.325h-19.9V10.985h32.235q9.775 0 16.524 3.375t10.124 9.31 3.375 13.615m-31.536 10.24q5.702 0 8.495-2.676t2.793-7.564-2.793-7.564-8.495-2.677h-10.822v20.481zM605.676 175.53q0 2.793-.349 5.819h-45.035q.465 6.051 3.84 9.309 3.49 3.142 8.495 3.142 7.447 0 10.357-6.284h21.179q-1.63 6.401-5.935 11.521-4.19 5.12-10.59 8.03t-14.313 2.909q-9.543 0-16.99-4.073-7.447-4.072-11.637-11.637-4.19-7.564-4.189-17.688 0-10.125 4.073-17.688 4.19-7.565 11.637-11.637 7.447-4.073 17.106-4.073 9.426 0 16.757 3.956t11.404 11.288q4.19 7.332 4.19 17.106m-20.365-5.236q0-5.12-3.491-8.146t-8.728-3.026q-5.004 0-8.495 2.91-3.375 2.909-4.189 8.262zm1.396-44.802v13.731l-28.045-11.753v-15.477zm-48.101 35.14H527.9v48.41h-19.899v-48.41h-7.215v-16.524h7.215v-1.862q0-11.986 6.866-18.154 6.866-6.284 20.132-6.284 2.211 0 3.258.116v16.874q-5.702-.35-8.029 1.629-2.328 1.978-2.328 7.099v.582h10.706z"/>
  <path fill="#F9F5F1" d="M501.163 160.632h-10.706v48.41h-19.899v-48.41h-7.215v-16.524h7.215v-1.862q0-11.986 6.866-18.154 6.866-6.284 20.132-6.284 2.211 0 3.258.116v16.874q-5.702-.35-8.029 1.629-2.328 1.978-2.328 7.099v.582h10.706zm-112.03 15.837q0-10.008 3.724-17.572 3.84-7.563 10.357-11.637 6.516-4.072 14.546-4.072 6.866 0 11.986 2.792 5.237 2.793 8.03 7.332v-9.194h19.899v64.935h-19.899v-9.194q-2.91 4.539-8.146 7.332-5.12 2.793-11.986 2.793-7.914 0-14.43-4.073-6.516-4.19-10.357-11.754-3.724-7.68-3.724-17.688m48.643.117q0-7.448-4.19-11.754-4.073-4.305-10.007-4.305-5.936 0-10.124 4.305-4.074 4.19-4.073 11.637 0 7.448 4.073 11.87 4.188 4.305 10.124 4.306 5.934 0 10.007-4.306 4.19-4.306 4.19-11.753m-133.211-8.498q0-12.103 5.237-21.529 5.236-9.542 14.546-14.779 9.426-5.353 21.295-5.353 14.547 0 24.903 7.681 10.357 7.68 13.848 20.946h-21.877q-2.444-5.12-6.982-7.797-4.422-2.676-10.124-2.676-9.193 0-14.896 6.4-5.702 6.4-5.702 17.107t5.702 17.106q5.703 6.4 14.896 6.4 5.702 0 10.124-2.676 4.538-2.678 6.982-7.797h21.877q-3.49 13.266-13.848 20.946-10.356 7.564-24.903 7.564-11.87 0-21.295-5.236-9.31-5.353-14.546-14.779-5.238-9.426-5.237-21.528"/>
</svg>
