<svg xmlns="http://www.w3.org/2000/svg" width="114" height="39" fill="none" viewBox="0 0 114 39">
  <path fill="#F9F5F1" d="M8.961 34.101a14.6 14.6 0 0 0 10.619 4.544c7.929 0 15.353-5.876 17.306-7.54.083-.058.166-.124.24-.199q.015-.01.017-.008c1.804-1.573 4.875-5.223 5.214-12.001.298-5.943-2.127-9.071-4.502-10.015-1.333-.53-2.657-.34-3.36.497-.34.397-.994 1.523.148 3.443a6.04 6.04 0 0 1-1.067 7.689 59 59 0 0 0-5.14-5.876c-6.207-6.208-13.772-11.199-16.23-8.74q-.1.099-.174.223l-.05.05c-.198.223-.455.538-.753.91a7.96 7.96 0 0 0-4.42-2.533 5.27 5.27 0 0 0-4.56 1.656 7.22 7.22 0 0 0-2.044 6.935 9.3 9.3 0 0 0 2.54 4.387 11.5 11.5 0 0 0 2.194 1.705c-1.142 4.817-.662 10.197 4.022 14.873M5.253 10.248c.141-.298.39-.53.696-.637.264-.075.554-.042.794.099a5.4 5.4 0 0 1 1.597 1.515 33 33 0 0 0-1.688 3.17c-1.117-.944-2.251-2.525-1.399-4.147M9.954 33.1c-8.491-8.492-1.73-19.715 1.747-24.334q.176.785.488 1.532c1.308 3.227 4.577 7.647 8.748 11.818l.472.464c4.213 4.122 9.435 8.02 12.887 8.773-4.619 3.476-15.85 10.238-24.342 1.746m3.981-22.372a6.96 6.96 0 0 1 5.364 2.74c.96 1.282.951 2.888.951 4.436 0 .496 0 .993.034 1.49a39.4 39.4 0 0 1-6.349-8.666m21.917 1.357c-.472-.786-.58-1.465-.29-1.804a1.64 1.64 0 0 1 1.763-.1c1.83.729 3.873 3.427 3.609 8.633-.315 6.249-3.104 9.584-4.735 11.008-.016.008-.016.025-.033.041-.008.017-.041.017-.05.034a1 1 0 0 0-.107.066c-.72.372-2.533-.116-5.04-1.59a10.4 10.4 0 0 0 5.586-3.418.68.68 0 0 0 .133-.703.7.7 0 0 0-.555-.455.72.72 0 0 0-.67.264 9.5 9.5 0 0 1-6.249 3.204 45 45 0 0 1-4.171-3.253c.364.05.736.083 1.15.107a11.46 11.46 0 0 0 7.672-2.044l.009-.008c3.203-2.276 4.063-6.655 1.978-9.982m-8.417 3.534a57 57 0 0 1 5.015 5.728 10.6 10.6 0 0 1-6.174 1.365c-1.896-.099-3.145-.488-3.816-1.183-.803-.828-.803-2.119-.794-3.625 0-1.697.008-3.625-1.233-5.289a8.6 8.6 0 0 0-7.102-3.319c-.53-1.49-.33-2.11-.215-2.31l.017-.032c.016-.033.041-.058.066-.083 1.15-1.126 7.118 1.639 14.236 8.748m-23.696.91a7.9 7.9 0 0 1-2.16-3.715 5.84 5.84 0 0 1 1.68-5.62 3.92 3.92 0 0 1 3.376-1.258 6.78 6.78 0 0 1 3.733 2.26c-.38.52-.794 1.108-1.225 1.762a5.9 5.9 0 0 0-1.713-1.49 2.4 2.4 0 0 0-1.879-.206 2.58 2.58 0 0 0-1.53 1.324c-1.218 2.284.156 4.7 2.068 6.15-.273.67-.521 1.365-.736 2.077a8.7 8.7 0 0 1-1.614-1.283"/>
  <path fill="#F9F5F1" d="M11.966 24.145c-2.475 2.466-2.922 6.042-1.002 7.97.232.224.489.422.77.58.008.008.025.008.033.016a4.5 4.5 0 0 0 2.276.588 7.1 7.1 0 0 0 4.883-2.194c2.475-2.466 2.922-6.041 1.002-7.97s-5.496-1.457-7.962 1.01m1.001 1.001a5.73 5.73 0 0 1 3.882-1.796c.323 0 .646.05.96.15-.215.43-.348.901-.397 1.381a2.155 2.155 0 0 1-2.053 2.053 3.55 3.55 0 0 0-3.252 3.253c-.025.29-.1.57-.216.836-1.274-1.4-.803-4.006 1.076-5.877m4.966 4.974c-1.481 1.482-3.401 2.086-4.842 1.656.216-.43.356-.902.406-1.39a2.156 2.156 0 0 1 2.053-2.053 3.55 3.55 0 0 0 3.252-3.253c.025-.29.1-.571.215-.836 1.267 1.399.803 3.998-1.084 5.877M30.969 7.144c.273.067.546.108.828.108a2.3 2.3 0 0 0 1.63-.62 2.51 2.51 0 0 0 .513-2.459 5.7 5.7 0 0 0-1.514-2.532A5.7 5.7 0 0 0 29.893.126a2.51 2.51 0 0 0-2.458.513 2.51 2.51 0 0 0-.513 2.458c.273.96.794 1.838 1.514 2.533a5.5 5.5 0 0 0 2.533 1.514m-2.533-5.503a.87.87 0 0 1 .63-.207q.247.002.496.066a4.3 4.3 0 0 1 1.879 1.142 4.2 4.2 0 0 1 1.142 1.879c.14.372.091.794-.14 1.117-.323.232-.746.29-1.118.14a4.3 4.3 0 0 1-1.879-1.141 4.2 4.2 0 0 1-1.142-1.87 1.14 1.14 0 0 1 .132-1.126m72.928 8.774q0-1.734.646-3.045.665-1.31 1.794-2.017a4.66 4.66 0 0 1 2.521-.706q1.19 0 2.077.484.908.485 1.392 1.27V4.81h3.448v11.253h-3.448v-1.594q-.504.787-1.412 1.271-.887.484-2.077.484a4.63 4.63 0 0 1-2.501-.706q-1.129-.726-1.794-2.037-.646-1.33-.646-3.065m8.43.02q0-1.29-.726-2.037a2.3 2.3 0 0 0-1.735-.746q-1.028 0-1.754.746-.706.727-.706 2.017t.706 2.057a2.36 2.36 0 0 0 1.754.746q1.029 0 1.735-.746.726-.746.726-2.037m-13.807 5.787q-1.472 0-2.621-.504t-1.815-1.371a3.7 3.7 0 0 1-.746-1.977h3.408q.06.585.544.948t1.19.363q.645 0 .988-.242.363-.263.363-.665 0-.484-.504-.706-.504-.242-1.633-.525a17 17 0 0 1-2.017-.585 3.6 3.6 0 0 1-1.392-.988q-.585-.685-.584-1.835 0-.968.524-1.754.544-.807 1.573-1.27 1.05-.465 2.48-.465 2.118 0 3.328 1.05 1.23 1.047 1.412 2.782h-3.187q-.08-.585-.524-.928-.423-.342-1.13-.342-.605 0-.927.242a.72.72 0 0 0-.323.625q0 .483.504.726.525.241 1.614.484 1.25.322 2.037.645.786.303 1.37 1.008.606.686.626 1.856 0 .988-.565 1.774-.544.766-1.593 1.21-1.028.444-2.4.444M89.538 4.809V16.06h-3.449v-1.53q-.525.745-1.432 1.21a4.36 4.36 0 0 1-1.976.443q-1.29 0-2.279-.564-.988-.585-1.532-1.674-.545-1.09-.545-2.561V4.809h3.428v6.11q0 1.13.585 1.755.586.624 1.573.625 1.009 0 1.593-.625.585-.626.585-1.755v-6.11zm-24.88 5.606q0-1.734.645-3.045.667-1.31 1.795-2.017a4.66 4.66 0 0 1 2.521-.706q1.19 0 2.077.484.908.485 1.392 1.27V4.81h3.448v11.253h-3.448v-1.594q-.504.787-1.412 1.271-.887.484-2.077.484a4.6 4.6 0 0 1-2.5-.706q-1.13-.726-1.796-2.037-.645-1.33-.645-3.065m8.43.02q0-1.29-.726-2.037a2.3 2.3 0 0 0-1.735-.746q-1.028 0-1.754.746-.706.727-.706 2.017t.706 2.057a2.36 2.36 0 0 0 1.754.746q1.029 0 1.735-.746.726-.746.726-2.037m-8.934-3.975q0 1.23-.564 2.259-.565 1.008-1.735 1.633-1.17.626-2.904.626h-2.137v5.082h-3.449V1.904h5.586q1.695 0 2.864.585 1.17.584 1.754 1.613t.585 2.36M58.69 8.236q.989 0 1.472-.464.484-.464.484-1.31 0-.848-.484-1.311-.483-.464-1.472-.464h-1.875v3.549zm46.271 22.183q0 .483-.06 1.008h-7.805q.081 1.049.666 1.613.605.545 1.472.545 1.29 0 1.795-1.09h3.67a4.96 4.96 0 0 1-1.029 1.997 5 5 0 0 1-1.835 1.392q-1.109.504-2.48.504-1.654 0-2.944-.706a5 5 0 0 1-2.017-2.017q-.726-1.31-.726-3.065t.706-3.065a5 5 0 0 1 2.016-2.017q1.29-.706 2.965-.706 1.634 0 2.904.686a4.85 4.85 0 0 1 1.976 1.956q.726 1.27.726 2.965m-3.529-.908q0-.887-.605-1.412-.604-.525-1.513-.524-.866 0-1.472.504-.585.504-.726 1.432zm.242-7.764v2.38l-4.86-2.037v-2.682zm-8.336 6.09h-1.855v8.389h-3.449v-8.39h-1.25v-2.863h1.25v-.322q0-2.078 1.19-3.146 1.19-1.09 3.49-1.09.382 0 .564.02v2.925q-.989-.06-1.392.282-.403.343-.403 1.23v.101h1.855z"/>
  <path fill="#F9F5F1" d="M86.85 27.837h-1.855v8.389h-3.449v-8.39h-1.25v-2.863h1.25v-.322q0-2.078 1.19-3.146 1.19-1.09 3.489-1.09.383 0 .565.02v2.925q-.99-.06-1.392.282-.403.343-.403 1.23v.101h1.855zm-19.414 2.745q0-1.735.645-3.046.666-1.31 1.795-2.016a4.66 4.66 0 0 1 2.52-.706q1.19 0 2.078.484.907.484 1.391 1.27v-1.593h3.449v11.253h-3.449v-1.593q-.504.787-1.412 1.27-.887.484-2.077.484a4.6 4.6 0 0 1-2.5-.705q-1.13-.726-1.795-2.037-.645-1.332-.645-3.065m8.43.02q0-1.29-.727-2.037a2.3 2.3 0 0 0-1.734-.746q-1.028 0-1.755.746-.706.726-.706 2.016t.706 2.058a2.36 2.36 0 0 0 1.755.746q1.028-.001 1.734-.746.726-.747.726-2.037M52.78 29.129q0-2.098.908-3.731a6.4 6.4 0 0 1 2.52-2.561q1.635-.928 3.691-.928 2.521 0 4.316 1.331 1.794 1.332 2.4 3.63h-3.792q-.423-.887-1.21-1.351-.766-.465-1.754-.464-1.593 0-2.582 1.11-.987 1.109-.988 2.964 0 1.855.988 2.964.99 1.11 2.582 1.11.987 0 1.754-.465.787-.464 1.21-1.35h3.791q-.605 2.298-2.4 3.63-1.794 1.31-4.315 1.31-2.057 0-3.69-.907a6.6 6.6 0 0 1-2.521-2.562q-.908-1.633-.908-3.73"/>
</svg>
