<svg version="1.1" id="Layer_1" xmlns="http://www.w3.org/2000/svg" xmlns:xlink="http://www.w3.org/1999/xlink" x="0px" y="0px"
	 width="100%" viewBox="0 0 625 224" enable-background="new 0 0 625 224" xml:space="preserve">
<path fill="#000000" opacity="1.000000" stroke="none" 
	d="
M305.000000,225.000000 
	C203.766586,225.000000 102.533173,225.000000 1.000000,225.000000 
	C1.000000,178.646210 1.000000,132.291763 1.304688,85.174698 
	C2.436439,85.751976 3.321600,87.059845 4.080806,88.437149 
	C7.987630,95.524666 11.631170,102.794327 18.822033,107.336418 
	C24.305323,110.799927 27.711586,115.172905 25.023829,122.127678 
	C24.506681,123.465851 24.122116,124.923485 24.032511,126.348404 
	C22.771235,146.405319 26.663624,165.051392 39.043827,181.423157 
	C49.022034,194.618484 61.264061,205.305038 76.847481,210.741043 
	C96.295647,217.525177 116.157318,216.630814 135.731003,210.049347 
	C162.324127,201.107681 185.646225,186.859863 204.871521,166.424622 
	C213.804184,156.929779 218.931274,144.866852 221.782471,132.352921 
	C224.636063,119.828499 226.217865,107.050957 224.149445,93.943657 
	C221.651031,78.111702 215.766037,64.941719 200.813309,57.287739 
	C192.968552,53.272175 182.606766,56.659309 180.025482,64.078522 
	C178.040466,69.783966 180.638947,74.565201 182.950516,79.527718 
	C185.977707,86.026649 188.943405,92.301254 187.273300,100.220390 
	C185.817657,107.122681 182.788818,112.600677 178.114227,117.819153 
	C172.352859,111.035553 166.843292,104.070389 160.820419,97.581665 
	C153.774750,89.990997 146.600204,82.459534 138.890625,75.562996 
	C131.592377,69.034431 123.678917,63.156410 115.764671,57.362965 
	C105.684914,49.984295 95.255539,43.081097 83.050117,39.607700 
	C77.763748,38.103321 72.199699,36.476070 67.173721,40.046825 
	C64.614441,41.865093 62.712322,44.608356 60.542229,46.902752 
	C59.441906,46.217796 58.379707,45.743591 57.547138,45.009098 
	C49.963329,38.318703 41.545143,34.467773 31.022381,34.863392 
	C18.918089,35.318478 12.184015,42.869480 5.999781,51.655449 
	C4.295324,54.076984 2.664572,56.550392 1.000000,59.000000 
	C1.000000,39.678352 1.000000,20.356705 1.000001,1.039243 
	C209.333344,1.043429 417.666687,1.043429 626.000000,1.043429 
	C626.000000,14.412133 626.000000,27.737408 625.531372,41.530510 
	C618.443787,41.998341 611.824707,41.998341 604.861328,41.998341 
	C604.861328,44.822903 604.861328,47.186031 604.861328,49.295128 
	C600.079651,45.550934 595.455322,42.608624 589.129456,41.789680 
	C578.195312,40.374176 566.382935,45.621937 561.301880,55.227196 
	C555.465271,66.260933 555.314331,77.524208 558.694763,89.379974 
	C562.114746,101.374779 575.000244,109.359604 585.683594,109.079483 
	C593.131836,108.884193 599.335388,106.158768 605.251587,100.712563 
	C605.251587,103.651146 605.251587,105.736763 605.251587,108.000000 
	C612.376160,108.000000 619.188049,108.000000 626.000000,108.000000 
	C626.000000,146.908051 626.000000,185.816116 626.000000,225.000000 
	C603.313171,225.000000 580.625244,225.000000 557.167969,224.686813 
	C559.928650,222.251511 563.731567,220.472015 566.925598,217.928009 
	C571.874390,213.986389 575.248535,208.891785 576.138611,202.000626 
	C569.259644,202.000626 562.946411,201.925888 556.638672,202.079178 
	C555.665771,202.102844 554.507935,202.987289 553.794983,203.791992 
	C550.418640,207.602859 544.816040,209.626282 540.420959,207.739746 
	C536.049500,205.863388 533.163391,202.480637 533.086121,196.815689 
	C548.134094,196.815689 563.022949,196.815689 578.000000,196.815689 
	C578.000000,194.006226 578.032532,191.681824 577.994507,189.358566 
	C577.800354,177.514236 573.602295,167.665039 562.708557,162.056152 
	C551.074280,156.065933 538.909302,155.739883 527.408752,162.255829 
	C514.394897,169.629166 510.816254,182.132751 512.153931,195.969986 
	C513.373840,208.589813 519.435730,218.431763 532.067322,223.096756 
	C532.547058,223.273926 532.696594,224.345306 533.000000,225.000000 
	C522.312439,225.000000 511.624878,225.000000 500.113922,224.622559 
	C499.527039,218.991684 499.916046,213.739761 499.968048,208.484482 
	C500.074493,197.725250 500.000000,186.964233 500.000000,175.815125 
	C503.979645,175.815125 507.389618,175.815125 510.709137,175.815125 
	C510.709137,170.005875 510.709137,164.599609 510.709137,159.000214 
	C508.775787,159.000214 507.128174,159.000214 505.480591,159.000214 
	C503.703735,159.000214 501.926910,159.000214 500.075226,159.000214 
	C501.341339,151.448166 502.167786,150.745941 510.998749,149.499008 
	C510.998749,147.560669 510.998688,145.580963 510.998718,143.601242 
	C510.998871,131.889542 510.990479,131.808990 499.347900,133.027374 
	C490.690460,133.933380 484.425507,138.572418 481.314972,146.592621 
	C479.891937,150.261703 480.039307,154.539825 479.440125,158.785004 
	C474.224518,158.785004 468.798340,158.785004 462.673462,158.785004 
	C463.178772,156.590805 462.988464,153.779144 464.215698,152.859848 
	C466.628998,151.052063 469.830017,150.295761 472.697510,149.107620 
	C472.697510,143.597519 472.697510,137.839539 472.697510,131.862885 
	C464.415802,132.322327 456.319641,132.774521 449.793060,137.890015 
	C443.165222,143.084854 441.863617,150.894730 441.783966,158.823593 
	C439.330139,158.977295 437.250854,159.107529 435.292664,159.230194 
	C435.292664,165.021591 435.292664,170.435410 435.292664,175.831604 
	C437.662384,175.978195 439.739319,176.106659 442.000000,176.246506 
	C442.000000,192.734604 442.000000,208.867294 442.000000,225.000000 
	C438.307098,225.000000 434.614166,225.000000 430.105896,224.622574 
	C429.527039,222.657043 429.964294,221.069550 429.969055,219.480743 
	C430.019165,202.837753 430.000000,186.194565 430.000000,169.551422 
	C430.000000,166.113724 430.000000,162.676025 430.000000,159.218964 
	C422.698914,159.218964 415.938477,159.218964 408.847107,159.218964 
	C408.847107,161.483856 408.847107,163.536987 408.847107,166.820023 
	C402.733307,158.325012 394.764038,157.225296 386.364410,158.068665 
	C378.913055,158.816833 372.592133,161.736252 367.896637,168.145569 
	C362.424286,175.615295 360.802155,183.744293 360.880615,192.811050 
	C360.997314,206.294952 365.723724,216.715073 378.062622,223.075943 
	C378.570679,223.337860 378.696259,224.341766 379.000000,225.000000 
	C362.979095,225.000000 346.958221,225.000000 330.166626,224.679550 
	C330.361725,223.884018 331.295593,223.324249 332.298035,222.946625 
	C344.988708,218.166565 353.400269,209.532913 356.674896,196.000244 
	C350.046906,196.000244 343.545990,195.861145 337.059814,196.109009 
	C335.637604,196.163345 333.819702,197.263260 332.944794,198.444931 
	C325.679626,208.257278 310.418762,208.603439 302.617767,199.245956 
	C296.480408,191.884064 295.965881,183.508377 298.157074,174.942978 
	C300.196777,166.969574 306.042755,161.712418 313.975250,160.231888 
	C321.118530,158.898636 327.745544,160.943359 332.258118,167.571899 
	C333.105133,168.816071 335.173950,169.832809 336.719666,169.892059 
	C343.321198,170.145050 349.937988,169.999741 356.607544,169.999741 
	C354.606110,161.186722 350.609894,153.578140 339.359863,146.721191 
	C324.206146,137.484894 303.315430,139.330444 290.264313,150.323578 
	C267.415741,169.569290 271.796509,213.087173 303.558899,223.060928 
	C304.180878,223.256241 304.525818,224.333969 305.000000,225.000000 
M402.520325,41.998817 
	C399.390717,41.998817 396.261078,41.998817 392.801514,41.998817 
	C392.801514,44.505928 392.801514,46.547779 392.801514,48.834312 
	C378.447174,36.663345 360.406006,39.789814 351.451508,52.372570 
	C342.591644,64.822273 342.433960,78.924561 348.419678,92.681229 
	C353.255554,103.795158 362.405853,109.009789 374.631744,109.057373 
	C381.874542,109.085556 387.488190,105.693016 393.218140,100.821213 
	C393.218140,103.632729 393.218140,105.716553 393.218140,107.716278 
	C400.283508,107.716278 407.028931,107.716278 413.715088,107.716278 
	C413.715088,85.696175 413.715088,63.961178 413.715088,41.998817 
	C410.123657,41.998817 406.812988,41.998817 402.520325,41.998817 
M299.500122,26.000006 
	C292.742981,26.000006 285.985809,26.000006 279.242615,26.000006 
	C279.242615,53.603214 279.242615,80.643364 279.242615,107.762482 
	C286.217316,107.762482 292.947510,107.762482 300.065460,107.762482 
	C300.065460,98.132729 300.065460,88.732338 300.065460,79.497681 
	C307.153748,78.978783 313.899109,78.884354 320.513306,77.904579 
	C329.786499,76.530922 337.194183,71.852837 340.552124,62.755894 
	C342.287506,58.054668 343.187653,53.163673 342.217834,47.697937 
	C340.477783,37.891273 335.330719,31.682009 326.371552,27.960598 
	C317.915039,24.447973 309.119171,26.660307 299.500122,26.000006 
M488.999969,56.504314 
	C488.999969,51.740578 488.999969,46.976841 488.999969,42.281185 
	C481.695740,42.281185 474.963287,42.281185 467.999207,42.281185 
	C467.999207,54.524227 468.007050,66.486107 467.996399,78.447968 
	C467.989410,86.313293 463.855103,90.487473 456.955902,91.115311 
	C448.268280,91.905914 443.943878,84.772423 443.983643,78.237366 
	C444.045471,68.083115 444.000061,57.928219 444.000092,47.773594 
	C444.000092,45.864376 444.000092,43.955162 444.000092,41.998856 
	C438.101562,41.998856 432.931396,42.196976 427.785034,41.932487 
	C424.061615,41.741127 422.797119,43.022903 422.939667,46.765507 
	C423.430817,59.660999 423.660309,72.566383 424.001862,85.467674 
	C424.351257,98.665283 435.123230,108.350525 447.741516,108.999702 
	C455.524200,109.400116 462.073578,106.441589 468.271729,100.719330 
	C468.271729,103.688499 468.271729,105.766449 468.271729,107.695129 
	C475.344818,107.695129 482.082916,107.695129 488.762543,107.695129 
	C488.873016,107.076019 488.978333,106.760529 488.978577,106.444954 
	C488.991302,90.131088 488.995178,73.817207 488.999969,56.504314 
M537.578491,70.951294 
	C531.903687,69.249771 526.159668,67.738747 520.600220,65.719696 
	C519.114319,65.180054 517.608704,63.228390 517.229858,61.655739 
	C517.002136,60.710102 518.697510,58.874508 519.939087,58.080959 
	C523.806335,55.609177 529.509644,57.379204 532.128418,61.417160 
	C532.812012,62.471252 534.046570,63.839382 535.079041,63.884014 
	C540.683716,64.126289 546.304260,63.999043 551.946533,63.999043 
	C552.316345,57.862915 549.586060,53.531284 546.067078,49.597878 
	C536.289001,38.668175 513.735352,38.575264 503.050690,48.473572 
	C496.269501,54.755646 495.643646,68.037338 502.646393,73.820740 
	C506.682648,77.154213 512.127869,78.899086 517.114075,80.928596 
	C521.244385,82.609741 525.742188,83.398552 529.843750,85.134171 
	C531.256226,85.731857 532.702942,87.972824 532.747192,89.503151 
	C532.779236,90.612846 530.717163,92.322815 529.260193,92.841042 
	C523.400146,94.925430 518.835938,92.578949 515.508118,86.246140 
	C509.008270,86.246140 502.558411,86.246140 494.361969,86.246140 
	C496.810638,91.199722 498.175720,95.771828 500.940033,99.223183 
	C510.254456,110.852386 533.115784,112.045456 544.725952,103.847237 
	C550.405029,99.837128 553.076172,94.058189 552.754028,87.764137 
	C552.308411,79.057991 547.029114,73.291374 537.578491,70.951294 
M167.864975,15.393146 
	C164.932327,14.116781 162.080170,12.592177 159.052048,11.610222 
	C149.666351,8.566633 139.104218,16.036716 141.256699,24.473339 
	C144.297729,36.392521 150.283859,45.928459 163.476196,49.200710 
	C168.814255,50.524773 173.658615,50.530842 177.512955,46.771847 
	C181.529343,42.854813 181.764450,37.839054 180.189438,32.349628 
	C178.175827,25.331577 173.270065,20.707846 167.864975,15.393146 
M533.974548,144.469025 
	C542.086914,147.789825 550.199280,151.110641 559.000000,154.713211 
	C559.000000,150.739380 558.793152,147.603683 559.055481,144.507706 
	C559.344910,141.091446 558.317993,139.237564 554.890930,137.866959 
	C548.638550,135.366364 542.688965,132.113342 536.586060,129.231415 
	C534.607117,128.296921 532.543640,127.541344 530.001221,126.489838 
	C530.001221,131.365097 530.204712,135.524643 529.929199,139.652237 
	C529.747620,142.371964 530.970276,143.478012 533.974548,144.469025 
z"/>
<path fill="#F9F5F1" opacity="1.000000" stroke="none" 
	d="
M1.000000,59.468651 
	C2.664572,56.550392 4.295324,54.076984 5.999781,51.655449 
	C12.184015,42.869480 18.918089,35.318478 31.022381,34.863392 
	C41.545143,34.467773 49.963329,38.318703 57.547138,45.009098 
	C58.379707,45.743591 59.441906,46.217796 60.542229,46.902752 
	C62.712322,44.608356 64.614441,41.865093 67.173721,40.046825 
	C72.199699,36.476070 77.763748,38.103321 83.050117,39.607700 
	C95.255539,43.081097 105.684914,49.984295 115.764671,57.362965 
	C123.678917,63.156410 131.592377,69.034431 138.890625,75.562996 
	C146.600204,82.459534 153.774750,89.990997 160.820419,97.581665 
	C166.843292,104.070389 172.352859,111.035553 178.114227,117.819153 
	C182.788818,112.600677 185.817657,107.122681 187.273300,100.220390 
	C188.943405,92.301254 185.977707,86.026649 182.950516,79.527718 
	C180.638947,74.565201 178.040466,69.783966 180.025482,64.078522 
	C182.606766,56.659309 192.968552,53.272175 200.813309,57.287739 
	C215.766037,64.941719 221.651031,78.111702 224.149445,93.943657 
	C226.217865,107.050957 224.636063,119.828499 221.782471,132.352921 
	C218.931274,144.866852 213.804184,156.929779 204.871521,166.424622 
	C185.646225,186.859863 162.324127,201.107681 135.731003,210.049347 
	C116.157318,216.630814 96.295647,217.525177 76.847481,210.741043 
	C61.264061,205.305038 49.022034,194.618484 39.043827,181.423157 
	C26.663624,165.051392 22.771235,146.405319 24.032511,126.348404 
	C24.122116,124.923485 24.506681,123.465851 25.023829,122.127678 
	C27.711586,115.172905 24.305323,110.799927 18.822033,107.336418 
	C11.631170,102.794327 7.987630,95.524666 4.080806,88.437149 
	C3.321600,87.059845 2.436439,85.751976 1.304688,84.706039 
	C1.000000,76.645767 1.000000,68.291534 1.000000,59.468651 
M171.638657,173.998535 
	C170.910034,173.691849 170.156021,173.434097 169.456467,173.071335 
	C149.658524,162.804321 132.377304,149.074615 116.351227,133.766068 
	C102.173157,120.222786 88.983177,105.756432 77.918533,89.462669 
	C71.540703,80.070686 65.592728,70.494530 62.462170,59.129337 
	C50.417625,76.146156 40.245762,93.812469 35.362579,114.167503 
	C32.730042,125.140953 31.962257,136.107788 33.990231,147.227875 
	C38.121944,169.883484 51.147736,185.797791 70.699303,197.415985 
	C89.375000,208.513687 108.891502,208.754807 128.659378,202.759979 
	C139.599838,199.442154 150.001373,194.129089 160.317352,189.048462 
	C166.962631,185.775635 173.011658,181.292191 179.964218,176.954330 
	C176.823395,175.721344 174.633926,174.861816 171.638657,173.998535 
M166.873764,135.679352 
	C157.064041,138.684341 147.017365,139.569244 136.810486,139.078064 
	C136.674576,139.071518 136.515320,139.549866 136.359299,139.814941 
	C140.599167,143.063782 145.085800,146.030426 148.998245,149.622482 
	C153.584106,153.832825 158.381729,154.425797 164.067535,152.529312 
	C173.035431,149.538086 180.435303,144.398346 187.082321,137.732620 
	C188.429062,136.382111 191.983139,137.232758 194.519592,137.068634 
	C194.325790,139.228210 194.950989,142.092361 193.800873,143.429214 
	C187.823044,150.377701 180.923965,156.250809 171.897202,159.057892 
	C170.262283,159.566315 168.750000,160.469009 166.775208,161.376129 
	C170.593445,163.282654 173.694229,164.988998 176.920120,166.411667 
	C186.101791,170.460968 190.391617,169.881927 195.643494,163.835815 
	C208.859344,148.621414 214.966507,130.596542 215.934219,110.753143 
	C216.516006,98.823425 215.325638,87.088982 208.993652,76.483315 
	C206.165253,71.745934 198.441788,64.044167 192.526306,64.884598 
	C187.969833,65.531960 186.772003,66.898933 188.750671,71.234383 
	C189.147919,72.104752 189.757431,72.875786 190.230759,73.714256 
	C197.372482,86.365845 198.451080,99.438934 192.594604,112.824371 
	C187.671890,124.075676 178.365646,130.543472 166.873764,135.679352 
M134.487198,83.991394 
	C130.359131,80.536919 126.204300,77.113853 122.108093,73.622009 
	C110.375259,63.620247 97.752922,54.987450 83.490929,48.995533 
	C80.738647,47.839214 77.611488,47.365494 74.608620,47.068169 
	C70.817505,46.692802 69.575043,49.225807 70.063782,52.477570 
	C70.523918,55.538975 69.413109,59.528313 74.711296,60.095520 
	C79.958656,60.657284 85.438904,61.209843 90.260765,63.149319 
	C101.931099,67.843437 111.650780,75.086739 113.953949,88.494453 
	C115.247528,96.024979 115.226601,103.773140 116.058838,111.394760 
	C116.436592,114.854218 116.922356,118.471725 118.282578,121.618340 
	C121.025200,127.962852 127.604965,129.363953 133.202942,129.745193 
	C146.037018,130.619247 159.157883,131.301483 171.548248,122.654373 
	C159.458801,110.032265 147.226624,97.261131 134.487198,83.991394 
M46.539249,60.023239 
	C47.373711,60.757923 48.208168,61.492607 49.126457,62.301098 
	C51.132446,59.481308 52.936630,56.945187 54.643391,54.546017 
	C52.568306,52.689461 50.833721,50.856762 48.827766,49.396957 
	C43.414471,45.457512 37.337410,41.982899 30.627119,43.320412 
	C16.526350,46.131031 9.518173,59.135815 9.215689,70.491417 
	C8.832155,84.889709 17.026535,95.103645 28.294550,103.307419 
	C28.905159,102.172050 29.249884,101.444801 29.670038,100.764114 
	C32.049397,96.909332 32.345325,93.610542 28.127701,90.516403 
	C23.250326,86.938271 21.051964,81.477432 19.338203,75.874840 
	C17.246691,69.037308 21.577677,58.606995 27.930294,55.018047 
	C33.066475,52.116325 40.484489,53.962063 46.539249,60.023239 
M107.000160,99.586563 
	C108.696632,82.066895 88.772728,67.958366 75.981918,69.194038 
	C84.423897,84.180214 94.332695,97.806992 107.000458,111.113335 
	C107.000458,106.695312 107.000458,103.614639 107.000160,99.586563 
M32.359535,62.960976 
	C25.159750,67.892799 26.822346,78.133942 35.975399,84.640411 
	C37.612053,81.923637 39.181362,79.175674 40.887180,76.515259 
	C45.122231,69.910233 41.456615,63.384960 32.359535,62.960976 
z"/>
<path fill="#F9F5F1" opacity="1.000000" stroke="none" 
	d="
M442.468536,225.000000 
	C442.000000,208.867294 442.000000,192.734604 442.000000,176.246506 
	C439.739319,176.106659 437.662384,175.978195 435.292664,175.831604 
	C435.292664,170.435410 435.292664,165.021591 435.292664,159.230194 
	C437.250854,159.107529 439.330139,158.977295 441.783966,158.823593 
	C441.863617,150.894730 443.165222,143.084854 449.793060,137.890015 
	C456.319641,132.774521 464.415802,132.322327 472.697510,131.862885 
	C472.697510,137.839539 472.697510,143.597519 472.697510,149.107620 
	C469.830017,150.295761 466.628998,151.052063 464.215698,152.859848 
	C462.988464,153.779144 463.178772,156.590805 462.673462,158.785004 
	C468.798340,158.785004 474.224518,158.785004 479.440125,158.785004 
	C480.039307,154.539825 479.891937,150.261703 481.314972,146.592621 
	C484.425507,138.572418 490.690460,133.933380 499.347900,133.027374 
	C510.990479,131.808990 510.998871,131.889542 510.998718,143.601242 
	C510.998688,145.580963 510.998749,147.560669 510.998749,149.499008 
	C502.167786,150.745941 501.341339,151.448166 500.075226,159.000214 
	C501.926910,159.000214 503.703735,159.000214 505.480591,159.000214 
	C507.128174,159.000214 508.775787,159.000214 510.709137,159.000214 
	C510.709137,164.599609 510.709137,170.005875 510.709137,175.815125 
	C507.389618,175.815125 503.979645,175.815125 500.000000,175.815125 
	C500.000000,186.964233 500.074493,197.725250 499.968048,208.484482 
	C499.916046,213.739761 499.527039,218.991684 499.645264,224.622559 
	C493.645599,225.000000 487.291199,225.000000 480.823120,224.622559 
	C480.472992,218.324371 480.097260,212.405167 480.031067,206.482498 
	C479.918274,196.390839 480.000000,186.297012 480.000000,176.297516 
	C474.006744,176.297516 468.603424,176.297516 463.000000,176.297516 
	C463.000000,192.729324 463.000000,208.864655 463.000000,225.000000 
	C456.312347,225.000000 449.624725,225.000000 442.468536,225.000000 
z"/>
<path fill="#F9F5F1" opacity="1.000000" stroke="none" 
	d="
M305.468628,225.000000 
	C304.525818,224.333969 304.180878,223.256241 303.558899,223.060928 
	C271.796509,213.087173 267.415741,169.569290 290.264313,150.323578 
	C303.315430,139.330444 324.206146,137.484894 339.359863,146.721191 
	C350.609894,153.578140 354.606110,161.186722 356.607544,169.999741 
	C349.937988,169.999741 343.321198,170.145050 336.719666,169.892059 
	C335.173950,169.832809 333.105133,168.816071 332.258118,167.571899 
	C327.745544,160.943359 321.118530,158.898636 313.975250,160.231888 
	C306.042755,161.712418 300.196777,166.969574 298.157074,174.942978 
	C295.965881,183.508377 296.480408,191.884064 302.617767,199.245956 
	C310.418762,208.603439 325.679626,208.257278 332.944794,198.444931 
	C333.819702,197.263260 335.637604,196.163345 337.059814,196.109009 
	C343.545990,195.861145 350.046906,196.000244 356.674896,196.000244 
	C353.400269,209.532913 344.988708,218.166565 332.298035,222.946625 
	C331.295593,223.324249 330.361725,223.884018 329.697998,224.679550 
	C321.979095,225.000000 313.958191,225.000000 305.468628,225.000000 
z"/>
<path fill="#F9F5F1" opacity="1.000000" stroke="none" 
	d="
M626.000000,107.531342 
	C619.188049,108.000000 612.376160,108.000000 605.251587,108.000000 
	C605.251587,105.736763 605.251587,103.651146 605.251587,100.712563 
	C599.335388,106.158768 593.131836,108.884193 585.683594,109.079483 
	C575.000244,109.359604 562.114746,101.374779 558.694763,89.379974 
	C555.314331,77.524208 555.465271,66.260933 561.301880,55.227196 
	C566.382935,45.621937 578.195312,40.374176 589.129456,41.789680 
	C595.455322,42.608624 600.079651,45.550934 604.861328,49.295128 
	C604.861328,47.186031 604.861328,44.822903 604.861328,41.998341 
	C611.824707,41.998341 618.443787,41.998341 625.531372,41.999168 
	C626.000000,63.687561 626.000000,85.375122 626.000000,107.531342 
M578.808167,68.741585 
	C578.543335,71.138435 578.291321,73.536789 578.011169,75.931847 
	C577.081177,83.883408 583.184814,89.708313 589.347107,90.942467 
	C595.654175,92.205612 602.157166,87.304649 604.488281,80.050011 
	C606.633484,73.373756 603.026184,62.744583 596.487549,60.696949 
	C589.650574,58.555901 582.875000,60.815994 578.808167,68.741585 
z"/>
<path fill="#F9F5F1" opacity="1.000000" stroke="none" 
	d="
M379.468567,225.000000 
	C378.696259,224.341766 378.570679,223.337860 378.062622,223.075943 
	C365.723724,216.715073 360.997314,206.294952 360.880615,192.811050 
	C360.802155,183.744293 362.424286,175.615295 367.896637,168.145569 
	C372.592133,161.736252 378.913055,158.816833 386.364410,158.068665 
	C394.764038,157.225296 402.733307,158.325012 408.847107,166.820023 
	C408.847107,163.536987 408.847107,161.483856 408.847107,159.218964 
	C415.938477,159.218964 422.698914,159.218964 430.000000,159.218964 
	C430.000000,162.676025 430.000000,166.113724 430.000000,169.551422 
	C430.000000,186.194565 430.019165,202.837753 429.969055,219.480743 
	C429.964294,221.069550 429.527039,222.657043 429.645264,224.622574 
	C423.312347,225.000000 416.624725,225.000000 409.804688,224.666290 
	C409.324646,222.034241 408.976929,219.735916 408.441193,216.194763 
	C406.577271,218.430573 405.323059,220.103912 403.887817,221.604004 
	C402.703003,222.842316 401.304047,223.875763 400.000000,225.000000 
	C393.312347,225.000000 386.624725,225.000000 379.468567,225.000000 
M408.999603,191.516357 
	C408.990845,182.688965 403.328796,176.440750 395.732330,175.893402 
	C389.543488,175.447495 381.576843,183.274734 381.850952,189.967575 
	C382.298279,200.889435 386.435883,206.373337 394.753662,207.159241 
	C401.948456,207.839005 410.048920,200.207550 408.999603,191.516357 
z"/>
<path fill="#F9F5F1" opacity="1.000000" stroke="none" 
	d="
M533.468628,225.000000 
	C532.696594,224.345306 532.547058,223.273926 532.067322,223.096756 
	C519.435730,218.431763 513.373840,208.589813 512.153931,195.969986 
	C510.816254,182.132751 514.394897,169.629166 527.408752,162.255829 
	C538.909302,155.739883 551.074280,156.065933 562.708557,162.056152 
	C573.602295,167.665039 577.800354,177.514236 577.994507,189.358566 
	C578.032532,191.681824 578.000000,194.006226 578.000000,196.815689 
	C563.022949,196.815689 548.134094,196.815689 533.086121,196.815689 
	C533.163391,202.480637 536.049500,205.863388 540.420959,207.739746 
	C544.816040,209.626282 550.418640,207.602859 553.794983,203.791992 
	C554.507935,202.987289 555.665771,202.102844 556.638672,202.079178 
	C562.946411,201.925888 569.259644,202.000626 576.138611,202.000626 
	C575.248535,208.891785 571.874390,213.986389 566.925598,217.928009 
	C563.731567,220.472015 559.928650,222.251511 556.699280,224.686813 
	C549.312439,225.000000 541.624817,225.000000 533.468628,225.000000 
M543.700317,174.999283 
	C537.507629,175.397537 534.605774,178.160248 533.399597,184.830048 
	C541.184143,184.830048 548.962219,184.830048 556.782654,184.830048 
	C554.826050,177.238785 552.021851,175.012573 543.700317,174.999283 
z"/>
<path fill="#000000" opacity="1.000000" stroke="none" 
	d="
M463.467590,225.000000 
	C463.000000,208.864655 463.000000,192.729324 463.000000,176.297516 
	C468.603424,176.297516 474.006744,176.297516 480.000000,176.297516 
	C480.000000,186.297012 479.918274,196.390839 480.031067,206.482498 
	C480.097260,212.405167 480.472992,218.324371 480.354736,224.622559 
	C474.645081,225.000000 469.290131,225.000000 463.467590,225.000000 
z"/>
<path fill="#000000" opacity="1.000000" stroke="none" 
	d="
M400.449951,225.000000 
	C401.304047,223.875763 402.703003,222.842316 403.887817,221.604004 
	C405.323059,220.103912 406.577271,218.430573 408.441193,216.194763 
	C408.976929,219.735916 409.324646,222.034241 409.336182,224.666290 
	C406.299988,225.000000 403.599976,225.000000 400.449951,225.000000 
z"/>
<path fill="#F9F5F1" opacity="1.000000" stroke="none" 
	d="
M403.011322,41.998817 
	C406.812988,41.998817 410.123657,41.998817 413.715088,41.998817 
	C413.715088,63.961178 413.715088,85.696175 413.715088,107.716278 
	C407.028931,107.716278 400.283508,107.716278 393.218140,107.716278 
	C393.218140,105.716553 393.218140,103.632729 393.218140,100.821213 
	C387.488190,105.693016 381.874542,109.085556 374.631744,109.057373 
	C362.405853,109.009789 353.255554,103.795158 348.419678,92.681229 
	C342.433960,78.924561 342.591644,64.822273 351.451508,52.372570 
	C360.406006,39.789814 378.447174,36.663345 392.801514,48.834312 
	C392.801514,46.547779 392.801514,44.505928 392.801514,41.998817 
	C396.261078,41.998817 399.390717,41.998817 403.011322,41.998817 
M390.663239,84.863945 
	C391.173492,83.669624 391.689453,82.477692 392.193146,81.280602 
	C394.922668,74.793289 392.356232,65.056267 387.030548,62.009926 
	C382.167419,59.228176 377.293549,58.976315 372.296082,61.916588 
	C367.114838,64.965004 365.819305,69.601639 365.953461,75.206802 
	C366.139160,82.967773 368.948486,87.823158 375.894653,90.312897 
	C381.733917,92.405891 386.241547,89.590065 390.663239,84.863945 
z"/>
<path fill="#F9F5F1" opacity="1.000000" stroke="none" 
	d="
M300.000061,26.000006 
	C309.119171,26.660307 317.915039,24.447973 326.371552,27.960598 
	C335.330719,31.682009 340.477783,37.891273 342.217834,47.697937 
	C343.187653,53.163673 342.287506,58.054668 340.552124,62.755894 
	C337.194183,71.852837 329.786499,76.530922 320.513306,77.904579 
	C313.899109,78.884354 307.153748,78.978783 300.065460,79.497681 
	C300.065460,88.732338 300.065460,98.132729 300.065460,107.762482 
	C292.947510,107.762482 286.217316,107.762482 279.242615,107.762482 
	C279.242615,80.643364 279.242615,53.603214 279.242615,26.000006 
	C285.985809,26.000006 292.742981,26.000006 300.000061,26.000006 
M300.004333,43.727337 
	C300.004333,49.794075 300.004333,55.860809 300.004333,61.999424 
	C304.678162,61.999424 308.693909,62.324532 312.630402,61.905518 
	C316.365082,61.507992 319.952087,60.071186 320.947174,55.813915 
	C322.243164,50.269348 320.700745,45.063545 316.549133,44.114449 
	C311.227234,42.897812 305.569427,43.150436 300.004333,43.727337 
z"/>
<path fill="#F9F5F1" opacity="1.000000" stroke="none" 
	d="
M488.999969,57.003822 
	C488.995178,73.817207 488.991302,90.131088 488.978577,106.444954 
	C488.978333,106.760529 488.873016,107.076019 488.762543,107.695129 
	C482.082916,107.695129 475.344818,107.695129 468.271729,107.695129 
	C468.271729,105.766449 468.271729,103.688499 468.271729,100.719330 
	C462.073578,106.441589 455.524200,109.400116 447.741516,108.999702 
	C435.123230,108.350525 424.351257,98.665283 424.001862,85.467674 
	C423.660309,72.566383 423.430817,59.660999 422.939667,46.765507 
	C422.797119,43.022903 424.061615,41.741127 427.785034,41.932487 
	C432.931396,42.196976 438.101562,41.998856 444.000092,41.998856 
	C444.000092,43.955162 444.000092,45.864376 444.000092,47.773594 
	C444.000061,57.928219 444.045471,68.083115 443.983643,78.237366 
	C443.943878,84.772423 448.268280,91.905914 456.955902,91.115311 
	C463.855103,90.487473 467.989410,86.313293 467.996399,78.447968 
	C468.007050,66.486107 467.999207,54.524227 467.999207,42.281185 
	C474.963287,42.281185 481.695740,42.281185 488.999969,42.281185 
	C488.999969,46.976841 488.999969,51.740578 488.999969,57.003822 
z"/>
<path fill="#F9F5F1" opacity="1.000000" stroke="none" 
	d="
M537.982178,70.974586 
	C547.029114,73.291374 552.308411,79.057991 552.754028,87.764137 
	C553.076172,94.058189 550.405029,99.837128 544.725952,103.847237 
	C533.115784,112.045456 510.254456,110.852386 500.940033,99.223183 
	C498.175720,95.771828 496.810638,91.199722 494.361969,86.246140 
	C502.558411,86.246140 509.008270,86.246140 515.508118,86.246140 
	C518.835938,92.578949 523.400146,94.925430 529.260193,92.841042 
	C530.717163,92.322815 532.779236,90.612846 532.747192,89.503151 
	C532.702942,87.972824 531.256226,85.731857 529.843750,85.134171 
	C525.742188,83.398552 521.244385,82.609741 517.114075,80.928596 
	C512.127869,78.899086 506.682648,77.154213 502.646393,73.820740 
	C495.643646,68.037338 496.269501,54.755646 503.050690,48.473572 
	C513.735352,38.575264 536.289001,38.668175 546.067078,49.597878 
	C549.586060,53.531284 552.316345,57.862915 551.946533,63.999043 
	C546.304260,63.999043 540.683716,64.126289 535.079041,63.884014 
	C534.046570,63.839382 532.812012,62.471252 532.128418,61.417160 
	C529.509644,57.379204 523.806335,55.609177 519.939087,58.080959 
	C518.697510,58.874508 517.002136,60.710102 517.229858,61.655739 
	C517.608704,63.228390 519.114319,65.180054 520.600220,65.719696 
	C526.159668,67.738747 531.903687,69.249771 537.982178,70.974586 
z"/>
<path fill="#F9F5F1" opacity="1.000000" stroke="none" 
	d="
M168.121857,15.660769 
	C173.270065,20.707846 178.175827,25.331577 180.189438,32.349628 
	C181.764450,37.839054 181.529343,42.854813 177.512955,46.771847 
	C173.658615,50.530842 168.814255,50.524773 163.476196,49.200710 
	C150.283859,45.928459 144.297729,36.392521 141.256699,24.473339 
	C139.104218,16.036716 149.666351,8.566633 159.052048,11.610222 
	C162.080170,12.592177 164.932327,14.116781 168.121857,15.660769 
M152.951157,30.393105 
	C155.709061,35.517231 160.213638,38.626610 165.424301,40.689457 
	C166.943176,41.290760 169.562836,41.501675 170.474274,40.631226 
	C171.569000,39.585716 172.067657,36.995728 171.616470,35.420444 
	C170.124374,30.210794 167.333191,25.872288 162.473557,22.828398 
	C159.010284,20.659134 155.542831,18.506489 151.847580,20.899523 
	C147.484619,23.724972 151.949127,26.867804 152.951157,30.393105 
z"/>
<path fill="#F9F5F1" opacity="1.000000" stroke="none" 
	d="
M533.623840,144.248047 
	C530.970276,143.478012 529.747620,142.371964 529.929199,139.652237 
	C530.204712,135.524643 530.001221,131.365097 530.001221,126.489838 
	C532.543640,127.541344 534.607117,128.296921 536.586060,129.231415 
	C542.688965,132.113342 548.638550,135.366364 554.890930,137.866959 
	C558.317993,139.237564 559.344910,141.091446 559.055481,144.507706 
	C558.793152,147.603683 559.000000,150.739380 559.000000,154.713211 
	C550.199280,151.110641 542.086914,147.789825 533.623840,144.248047 
z"/>
<path fill="#000000" opacity="1.000000" stroke="none" 
	d="
M172.041565,174.000412 
	C174.633926,174.861816 176.823395,175.721344 179.964218,176.954330 
	C173.011658,181.292191 166.962631,185.775635 160.317352,189.048462 
	C150.001373,194.129089 139.599838,199.442154 128.659378,202.759979 
	C108.891502,208.754807 89.375000,208.513687 70.699303,197.415985 
	C51.147736,185.797791 38.121944,169.883484 33.990231,147.227875 
	C31.962257,136.107788 32.730042,125.140953 35.362579,114.167503 
	C40.245762,93.812469 50.417625,76.146156 62.462170,59.129337 
	C65.592728,70.494530 71.540703,80.070686 77.918533,89.462669 
	C88.983177,105.756432 102.173157,120.222786 116.351227,133.766068 
	C132.377304,149.074615 149.658524,162.804321 169.456467,173.071335 
	C170.156021,173.434097 170.910034,173.691849 172.041565,174.000412 
M53.012310,155.786819 
	C52.909752,156.754532 52.938755,157.758469 52.683964,158.684280 
	C50.525665,166.526688 53.322205,178.462082 61.658951,183.417419 
	C69.866341,188.295898 77.721207,187.597519 86.334816,185.114120 
	C101.836021,180.644974 114.002121,162.704147 113.074768,147.674805 
	C112.068214,131.361954 96.111656,123.396851 83.662849,126.735199 
	C68.434784,130.818863 58.366631,140.232361 53.012310,155.786819 
z"/>
<path fill="#000000" opacity="1.000000" stroke="none" 
	d="
M167.152802,135.384308 
	C178.365646,130.543472 187.671890,124.075676 192.594604,112.824371 
	C198.451080,99.438934 197.372482,86.365845 190.230759,73.714256 
	C189.757431,72.875786 189.147919,72.104752 188.750671,71.234383 
	C186.772003,66.898933 187.969833,65.531960 192.526306,64.884598 
	C198.441788,64.044167 206.165253,71.745934 208.993652,76.483315 
	C215.325638,87.088982 216.516006,98.823425 215.934219,110.753143 
	C214.966507,130.596542 208.859344,148.621414 195.643494,163.835815 
	C190.391617,169.881927 186.101791,170.460968 176.920120,166.411667 
	C173.694229,164.988998 170.593445,163.282654 166.775208,161.376129 
	C168.750000,160.469009 170.262283,159.566315 171.897202,159.057892 
	C180.923965,156.250809 187.823044,150.377701 193.800873,143.429214 
	C194.950989,142.092361 194.325790,139.228210 194.519592,137.068634 
	C191.983139,137.232758 188.429062,136.382111 187.082321,137.732620 
	C180.435303,144.398346 173.035431,149.538086 164.067535,152.529312 
	C158.381729,154.425797 153.584106,153.832825 148.998245,149.622482 
	C145.085800,146.030426 140.599167,143.063782 136.359299,139.814941 
	C136.515320,139.549866 136.674576,139.071518 136.810486,139.078064 
	C147.017365,139.569244 157.064041,138.684341 167.152802,135.384308 
z"/>
<path fill="#000000" opacity="1.000000" stroke="none" 
	d="
M134.740814,84.240700 
	C147.226624,97.261131 159.458801,110.032265 171.548248,122.654373 
	C159.157883,131.301483 146.037018,130.619247 133.202942,129.745193 
	C127.604965,129.363953 121.025200,127.962852 118.282578,121.618340 
	C116.922356,118.471725 116.436592,114.854218 116.058838,111.394760 
	C115.226601,103.773140 115.247528,96.024979 113.953949,88.494453 
	C111.650780,75.086739 101.931099,67.843437 90.260765,63.149319 
	C85.438904,61.209843 79.958656,60.657284 74.711296,60.095520 
	C69.413109,59.528313 70.523918,55.538975 70.063782,52.477570 
	C69.575043,49.225807 70.817505,46.692802 74.608620,47.068169 
	C77.611488,47.365494 80.738647,47.839214 83.490929,48.995533 
	C97.752922,54.987450 110.375259,63.620247 122.108093,73.622009 
	C126.204300,77.113853 130.359131,80.536919 134.740814,84.240700 
z"/>
<path fill="#000000" opacity="1.000000" stroke="none" 
	d="
M46.274361,59.769859 
	C40.484489,53.962063 33.066475,52.116325 27.930294,55.018047 
	C21.577677,58.606995 17.246691,69.037308 19.338203,75.874840 
	C21.051964,81.477432 23.250326,86.938271 28.127701,90.516403 
	C32.345325,93.610542 32.049397,96.909332 29.670038,100.764114 
	C29.249884,101.444801 28.905159,102.172050 28.294550,103.307419 
	C17.026535,95.103645 8.832155,84.889709 9.215689,70.491417 
	C9.518173,59.135815 16.526350,46.131031 30.627119,43.320412 
	C37.337410,41.982899 43.414471,45.457512 48.827766,49.396957 
	C50.833721,50.856762 52.568306,52.689461 54.643391,54.546017 
	C52.936630,56.945187 51.132446,59.481308 49.126457,62.301098 
	C48.208168,61.492607 47.373711,60.757923 46.274361,59.769859 
z"/>
<path fill="#000000" opacity="1.000000" stroke="none" 
	d="
M107.000305,100.060265 
	C107.000458,103.614639 107.000458,106.695312 107.000458,111.113335 
	C94.332695,97.806992 84.423897,84.180214 75.981918,69.194038 
	C88.772728,67.958366 108.696632,82.066895 107.000305,100.060265 
z"/>
<path fill="#000000" opacity="1.000000" stroke="none" 
	d="
M32.669865,62.737854 
	C41.456615,63.384960 45.122231,69.910233 40.887180,76.515259 
	C39.181362,79.175674 37.612053,81.923637 35.975399,84.640411 
	C26.822346,78.133942 25.159750,67.892799 32.669865,62.737854 
z"/>
<path fill="#000000" opacity="1.000000" stroke="none" 
	d="
M578.908508,68.342453 
	C582.875000,60.815994 589.650574,58.555901 596.487549,60.696949 
	C603.026184,62.744583 606.633484,73.373756 604.488281,80.050011 
	C602.157166,87.304649 595.654175,92.205612 589.347107,90.942467 
	C583.184814,89.708313 577.081177,83.883408 578.011169,75.931847 
	C578.291321,73.536789 578.543335,71.138435 578.908508,68.342453 
z"/>
<path fill="#000000" opacity="1.000000" stroke="none" 
	d="
M408.999634,191.961700 
	C410.048920,200.207550 401.948456,207.839005 394.753662,207.159241 
	C386.435883,206.373337 382.298279,200.889435 381.850952,189.967575 
	C381.576843,183.274734 389.543488,175.447495 395.732330,175.893402 
	C403.328796,176.440750 408.990845,182.688965 408.999634,191.961700 
z"/>
<path fill="#000000" opacity="1.000000" stroke="none" 
	d="
M544.135315,174.999268 
	C552.021851,175.012573 554.826050,177.238785 556.782654,184.830048 
	C548.962219,184.830048 541.184143,184.830048 533.399597,184.830048 
	C534.605774,178.160248 537.507629,175.397537 544.135315,174.999268 
z"/>
<path fill="#000000" opacity="1.000000" stroke="none" 
	d="
M390.372833,85.120384 
	C386.241547,89.590065 381.733917,92.405891 375.894653,90.312897 
	C368.948486,87.823158 366.139160,82.967773 365.953461,75.206802 
	C365.819305,69.601639 367.114838,64.965004 372.296082,61.916588 
	C377.293549,58.976315 382.167419,59.228176 387.030548,62.009926 
	C392.356232,65.056267 394.922668,74.793289 392.193146,81.280602 
	C391.689453,82.477692 391.173492,83.669624 390.372833,85.120384 
z"/>
<path fill="#000000" opacity="1.000000" stroke="none" 
	d="
M300.030334,43.248672 
	C305.569427,43.150436 311.227234,42.897812 316.549133,44.114449 
	C320.700745,45.063545 322.243164,50.269348 320.947174,55.813915 
	C319.952087,60.071186 316.365082,61.507992 312.630402,61.905518 
	C308.693909,62.324532 304.678162,61.999424 300.004333,61.999424 
	C300.004333,55.860809 300.004333,49.794075 300.030334,43.248672 
z"/>
<path fill="#000000" opacity="1.000000" stroke="none" 
	d="
M152.666702,30.139919 
	C151.949127,26.867804 147.484619,23.724972 151.847580,20.899523 
	C155.542831,18.506489 159.010284,20.659134 162.473557,22.828398 
	C167.333191,25.872288 170.124374,30.210794 171.616470,35.420444 
	C172.067657,36.995728 171.569000,39.585716 170.474274,40.631226 
	C169.562836,41.501675 166.943176,41.290760 165.424301,40.689457 
	C160.213638,38.626610 155.709061,35.517231 152.666702,30.139919 
z"/>
<path fill="#F9F5F1" opacity="1.000000" stroke="none" 
	d="
M53.024399,155.358383 
	C58.366631,140.232361 68.434784,130.818863 83.662849,126.735199 
	C96.111656,123.396851 112.068214,131.361954 113.074768,147.674805 
	C114.002121,162.704147 101.836021,180.644974 86.334816,185.114120 
	C77.721207,187.597519 69.866341,188.295898 61.658951,183.417419 
	C53.322205,178.462082 50.525665,166.526688 52.683964,158.684280 
	C52.938755,157.758469 52.909752,156.754532 53.024399,155.358383 
M73.846573,167.706833 
	C73.054649,171.042404 72.262718,174.377975 71.469162,177.713211 
	C78.482536,181.004440 92.632019,174.473145 99.771576,163.652435 
	C104.963097,155.784149 105.656006,145.803116 101.270012,141.439529 
	C99.198090,152.504303 95.739349,159.588562 82.633942,161.249191 
	C79.678749,161.623672 77.112770,165.069733 73.846573,167.706833 
M86.951416,150.556564 
	C92.907448,146.994476 92.038879,140.905518 93.181412,135.012207 
	C79.886353,134.723038 70.863327,141.171127 64.522522,151.233932 
	C60.409904,157.760605 58.787872,165.255585 62.872818,171.739914 
	C64.680992,167.691711 65.907204,162.651077 68.850655,158.991760 
	C71.891312,155.211578 76.164558,151.991119 82.012001,152.855774 
	C83.343536,153.052673 84.900642,151.724152 86.951416,150.556564 
z"/>
<path fill="#000000" opacity="1.000000" stroke="none" 
	d="
M74.107101,167.404327 
	C77.112770,165.069733 79.678749,161.623672 82.633942,161.249191 
	C95.739349,159.588562 99.198090,152.504303 101.270012,141.439529 
	C105.656006,145.803116 104.963097,155.784149 99.771576,163.652435 
	C92.632019,174.473145 78.482536,181.004440 71.469978,177.713379 
	C72.262718,174.377975 73.054649,171.042404 74.107101,167.404327 
z"/>
<path fill="#000000" opacity="1.000000" stroke="none" 
	d="
M86.652672,150.827148 
	C84.900642,151.724152 83.343536,153.052673 82.012001,152.855774 
	C76.164558,151.991119 71.891312,155.211578 68.850655,158.991760 
	C65.907204,162.651077 64.680992,167.691711 62.872818,171.739914 
	C58.787872,165.255585 60.409904,157.760605 64.522522,151.233932 
	C70.863327,141.171127 79.886353,134.723038 93.181412,135.012207 
	C92.038879,140.905518 92.907448,146.994476 86.652672,150.827148 
z"/>
</svg>