<svg width="94" height="44" viewBox="0 0 94 44" fill="none" xmlns="http://www.w3.org/2000/svg">
<path d="M93.3031 12.3442C93.1899 12.1884 93.1049 11.9903 93.1474 11.8345V9.5554C93.1474 9.04577 93.1474 7.99822 91.0948 7.99822C90.5568 7.95575 90.0472 8.069 89.5376 8.26719C89.1129 8.46537 88.8015 8.89006 88.759 9.38552L90.387 9.34305C90.4577 9.07409 90.5427 8.96084 90.9249 8.96084C91.4345 8.96084 91.5053 9.15902 91.5053 9.42799C91.1939 9.49877 90.8824 9.58371 90.571 9.62618C89.7924 9.73943 89.3253 9.78189 88.943 10.1641C88.7165 10.3906 88.5608 10.7445 88.5891 11.0559C88.5891 11.7496 89.0563 12.4149 90.1463 12.4149C90.6559 12.4574 91.1514 12.3017 91.5761 12.0327V12.3442H93.3031ZM91.5195 10.4048C91.5195 10.5605 91.5195 10.7587 91.4487 10.9144C91.293 11.1834 90.9815 11.3815 90.6701 11.3815C90.3587 11.3815 90.2454 11.1834 90.2454 11.0701C90.2454 11.0276 90.2454 10.8436 90.5993 10.6879C90.755 10.6454 90.9107 10.6171 91.024 10.5746C91.1656 10.518 91.3637 10.4472 91.5195 10.4048ZM86.3666 12.3442H88.1078V8.15394H86.3666V12.3442ZM86.3666 7.72925H88.1078V6.61092H86.3666V7.72925ZM83.9176 12.3442H85.6305V9.71111C85.673 9.24396 85.5173 8.81928 85.2058 8.46537C84.8519 8.19641 84.4272 8.04069 84.0025 8.04069C82.9975 8.04069 82.6011 8.55031 82.4878 8.81928C82.3321 8.46537 82.0207 8.23887 81.6385 8.15394C81.412 8.08316 81.2138 8.04069 80.9731 8.04069C80.4352 7.99822 79.8831 8.26719 79.6141 8.73434V8.15394H77.9437V12.3442H79.6849V10.065C79.6849 9.9093 79.7274 9.71111 79.8406 9.59786C79.9539 9.48462 80.1521 9.39968 80.3078 9.44215C80.5768 9.39968 80.8174 9.59786 80.8882 9.86683C80.8882 9.93761 80.9307 10.0225 80.9307 10.0933V12.3866H82.6719V10.0933C82.6294 9.78189 82.8276 9.47046 83.1815 9.42799C83.224 9.42799 83.2947 9.42799 83.3372 9.42799C83.9176 9.42799 83.9601 9.89514 83.9601 10.1641L83.9176 12.3442ZM74.4896 10.5605H77.519C77.4766 9.93761 77.4766 9.20149 76.8537 8.62109C76.3865 8.19641 75.7354 7.95575 75.1125 7.99822C73.711 7.99822 72.7059 8.89006 72.7059 10.249C72.7059 11.4098 73.4845 12.5423 75.1125 12.5423C76.0468 12.5848 76.8962 12.1601 77.4058 11.3815L75.976 10.8011C75.8628 11.1126 75.5513 11.3391 75.1974 11.3391C74.9992 11.3391 74.8152 11.2683 74.6878 11.1409C74.5746 10.9852 74.4896 10.7587 74.4896 10.5605ZM74.4896 9.66865C74.4896 9.31474 74.8011 9.04577 75.155 9.04577C75.4239 9.04577 75.6646 9.20149 75.7354 9.47046C75.7354 9.54124 75.7354 9.58371 75.7778 9.66865H74.4896ZM72.7059 18.7144C72.7059 19.8752 73.4845 21.0077 75.1125 21.0077C76.0468 21.0502 76.9386 20.6255 77.4341 19.8469L76.0043 19.2665C75.8911 19.5779 75.5796 19.8044 75.2257 19.8044C75.0276 19.8044 74.8435 19.7337 74.7161 19.6063C74.5604 19.4505 74.4896 19.224 74.5179 19.0259H77.5473C77.5473 18.3605 77.5049 17.6669 76.882 17.0865C76.4149 16.6618 75.7637 16.4211 75.1408 16.4636C73.7393 16.4636 72.7343 17.3554 72.7343 18.7144H72.7059ZM74.4896 18.1623C74.5321 17.8084 74.8011 17.5395 75.155 17.5395C75.4239 17.5395 75.6646 17.6952 75.7354 17.9641C75.7354 18.0349 75.7354 18.0774 75.7778 18.1623H74.4896ZM70.4976 20.8378H72.2388V15.1046H70.4976V20.8378ZM70.5825 12.3442H72.253V6.61092H70.4976V8.43706C70.1862 8.16809 69.8039 8.01238 69.3793 8.05484C68.4449 8.05484 67.4823 8.72018 67.4823 10.1924C67.4823 11.5089 68.176 12.514 69.4217 12.514C69.6482 12.514 69.8464 12.4716 70.0871 12.4008C70.2852 12.33 70.441 12.2026 70.5542 12.0469V12.3583H70.5825V12.3442ZM70.5825 10.249C70.625 10.5605 70.5401 10.8294 70.356 11.0701C70.2428 11.1834 70.0871 11.2683 69.9313 11.2683C69.7756 11.2683 69.6199 11.1975 69.5067 11.0701C69.3085 10.8436 69.2377 10.5322 69.2802 10.249C69.2802 10.0933 69.2802 9.89514 69.3226 9.73943C69.3651 9.42799 69.6341 9.20149 69.9455 9.20149C70.2145 9.20149 70.4551 9.42799 70.5259 9.71111C70.5401 9.86683 70.5825 10.065 70.5825 10.249ZM65.5005 12.3442H67.2134C67.1001 12.1884 67.0152 11.9903 67.0576 11.8345V9.5554C67.0576 9.04577 67.0576 7.99822 65.005 7.99822C64.4671 7.95575 63.9575 8.069 63.4478 8.26719C63.0231 8.46537 62.7117 8.89006 62.6692 9.38552L64.2972 9.34305C64.368 9.07409 64.4529 8.96084 64.8351 8.96084C65.3448 8.96084 65.4155 9.15902 65.4155 9.42799C65.1041 9.49877 64.7927 9.58371 64.4812 9.62618C63.7026 9.73943 63.2355 9.78189 62.8533 10.1641C62.6268 10.3906 62.4711 10.7445 62.4994 11.0559C62.4994 11.7496 62.9665 12.4149 64.0565 12.4149C64.5662 12.4574 65.0616 12.3017 65.4863 12.0327V12.3442H65.5005ZM65.3872 10.4048C65.3872 10.5605 65.3872 10.7587 65.3164 10.9144C65.1607 11.1834 64.8493 11.3815 64.5378 11.3815C64.2264 11.3815 64.1132 11.1834 64.1132 11.0701C64.1132 11.0276 64.1132 10.8436 64.4671 10.6879C64.6228 10.6454 64.7785 10.6171 64.8918 10.5746C65.0333 10.518 65.2315 10.4472 65.3872 10.4048ZM62.4003 18.6295C62.4003 17.1572 61.466 16.4919 60.5033 16.4919C60.0787 16.4494 59.6823 16.6052 59.385 16.9166V15.1046H57.6438V20.8378H59.3142V20.5264C59.4275 20.6821 59.5832 20.7529 59.7389 20.8378C59.9371 20.9086 60.1636 20.9511 60.4043 20.9511C61.6642 20.9511 62.4003 19.946 62.4003 18.6295ZM60.6874 18.7144C60.7299 19.0259 60.6449 19.2948 60.4609 19.5355C60.3476 19.6487 60.1919 19.7337 60.0362 19.7337C59.7248 19.7337 59.4983 19.5355 59.4558 19.224C59.4133 19.0683 59.385 18.8701 59.385 18.7144C59.3425 18.403 59.4558 18.134 59.6115 17.8934C59.7248 17.7801 59.8805 17.6952 60.0362 17.6952C60.3476 17.6952 60.6166 17.9217 60.6591 18.2331C60.6874 18.403 60.6874 18.5587 60.6874 18.7144ZM59.4416 10.249C59.4416 9.62618 59.7106 9.13071 60.2202 9.13071C60.6024 9.13071 60.9139 9.39968 60.9563 9.79605L62.2729 9.05993C62.2021 8.90421 62.0747 8.7485 61.919 8.63525C61.4518 8.16809 60.8006 7.9416 60.1353 7.96991C59.47 7.92744 58.8188 8.16809 58.3516 8.63525C57.9269 9.05993 57.6863 9.64033 57.7287 10.2632C57.658 11.4665 58.5781 12.4716 59.7389 12.5565C59.8522 12.5565 59.9371 12.5565 60.0504 12.5565C60.7157 12.599 61.3669 12.3583 61.8765 11.8912C62.0747 11.693 62.1879 11.5089 62.3012 11.2683L60.9847 10.5746C60.9139 10.8011 60.7582 11.2683 60.2061 11.2683C59.5266 11.2258 59.4416 10.6029 59.4416 10.249ZM59.3709 23.5983H57.658V24.9148H57.0776V25.8066H57.658L57.6155 27.8168C57.573 28.1283 57.6863 28.4397 57.8845 28.6662C58.1959 28.8927 58.6206 29.0484 59.0028 29.0201C59.3567 29.0201 59.7389 28.9776 60.0928 28.9493V27.7885C59.9796 27.831 59.8946 27.831 59.7814 27.831C59.3142 27.831 59.3142 27.562 59.3142 27.4063V25.8208H60.0928V24.929H59.3567V23.5983H59.3709ZM54.756 10.249C54.756 9.62618 55.0249 9.13071 55.5345 9.13071C55.9168 9.13071 56.2282 9.39968 56.2707 9.79605L57.5872 9.05993C57.5164 8.90421 57.389 8.7485 57.2333 8.63525C56.7661 8.16809 56.1149 7.9416 55.4496 7.96991C54.7843 7.92744 54.1331 8.16809 53.6659 8.63525C53.2413 9.05993 53.0006 9.64033 53.0431 10.2632C52.9723 11.4665 53.8924 12.4716 55.0532 12.5565C55.1665 12.5565 55.2514 12.5565 55.3647 12.5565C56.03 12.599 56.6812 12.3583 57.1908 11.8912C57.389 11.693 57.5022 11.5089 57.6155 11.2683L56.299 10.5746C56.2282 10.8011 56.0725 11.2683 55.5204 11.2683C54.8267 11.2258 54.756 10.6029 54.756 10.249ZM56.4264 24.7166C55.8884 24.6458 55.3788 24.8299 54.9966 25.1838V24.8016H53.3262V28.9776H55.0391V26.9958C55.0391 26.7268 55.0815 26.1039 56.0866 26.1039C56.1999 26.1039 56.3131 26.1039 56.4405 26.1039L56.4264 24.7166ZM55.1806 16.6193H53.4394V20.852H55.1806V16.6193ZM55.1806 15.1046H53.4394V16.2229H55.1806V15.1046ZM55.6478 34.0314C55.3364 34.1021 55.0249 34.1871 54.7135 34.2296C53.9349 34.3003 53.4677 34.3853 53.0855 34.7675C52.859 34.994 52.7033 35.3054 52.7033 35.6593C52.7033 36.353 53.1705 37.0183 54.2605 37.0183C54.7701 37.0608 55.2656 36.9051 55.6903 36.5936V36.9051H57.4032C57.2899 36.7493 57.205 36.5512 57.2474 36.3954V34.1021C57.2474 33.5925 57.2474 32.545 55.1948 32.545C54.6569 32.545 54.1472 32.6158 53.6376 32.8139C53.2129 33.0121 52.9015 33.4368 52.859 33.9323L54.487 33.8898C54.5578 33.5784 54.6427 33.5076 55.0249 33.5076C55.5629 33.5642 55.6478 33.7482 55.6478 34.0314ZM55.6478 34.9515C55.6478 35.1072 55.6478 35.3054 55.577 35.4611C55.4213 35.7301 55.1099 35.9283 54.756 35.9283C54.4445 35.9283 54.3313 35.7301 54.3313 35.6169C54.3313 35.5744 54.3313 35.3904 54.6852 35.2346C54.8409 35.1922 54.9966 35.1639 55.1099 35.1214C55.2939 35.0789 55.4921 34.994 55.6478 34.9515ZM51.0754 20.8378H52.7458V15.1046H51.0046V16.9307C50.6931 16.6618 50.3109 16.5061 49.8862 16.5061C48.9519 16.5061 47.9893 17.1714 47.9893 18.6436C47.9893 19.9602 48.683 20.9652 49.9287 20.9652C50.1552 20.9652 50.3534 20.9228 50.5941 20.852C50.7922 20.8095 50.948 20.6963 51.0187 20.5406L51.0754 20.8378ZM51.0754 18.7144C51.1178 19.0259 51.0329 19.2948 50.8489 19.5355C50.7356 19.6487 50.5799 19.7337 50.4242 19.7337C50.2685 19.7337 50.1127 19.6629 49.9995 19.5355C49.8013 19.309 49.7305 18.9975 49.773 18.7144C49.773 18.5587 49.773 18.3605 49.8155 18.2048C49.8579 17.8509 50.1977 17.6244 50.5091 17.6952C50.7356 17.7376 50.9763 17.9217 51.0187 18.1623C51.0329 18.3605 51.0754 18.5587 51.0754 18.7144ZM51.0329 12.3442H52.7458C52.6325 12.1884 52.5476 11.9903 52.5901 11.8345V9.5554C52.5901 9.04577 52.5901 7.99822 50.5374 7.99822C49.9995 7.95575 49.4899 8.069 48.9803 8.26719C48.5556 8.46537 48.2441 8.89006 48.2017 9.38552L49.8296 9.34305C49.8721 9.07409 49.9853 8.96084 50.3676 8.96084C50.8772 8.96084 50.948 9.15902 50.948 9.42799C50.6365 9.49877 50.3251 9.58371 50.0136 9.62618C49.2351 9.73943 48.7679 9.78189 48.3857 10.1641C48.1592 10.3906 48.0035 10.702 48.0035 11.0559C48.0035 11.7496 48.4706 12.4149 49.5607 12.4149C50.0703 12.4574 50.5657 12.3017 50.9904 12.0327L51.0329 12.3442ZM50.9196 10.4048C50.9196 10.5605 50.9196 10.7587 50.8489 10.9144C50.6931 11.2258 50.3817 11.3815 50.0278 11.3815C49.7164 11.3815 49.6031 11.1834 49.6031 11.0701C49.6031 11.0276 49.6031 10.8436 49.957 10.6879C50.1127 10.6454 50.2685 10.6171 50.3817 10.5746C50.5233 10.518 50.7215 10.4472 50.9196 10.4048ZM43.6575 21.8429L35.5885 16.138L37.259 6.39858L27.5195 8.069L21.8146 0L16.1097 8.069L6.39858 6.41273L8.069 16.1522L0 21.8571L8.069 27.562L6.39858 37.3014L16.138 35.631L21.8429 43.7L27.5479 35.631L37.2873 37.3014L35.6169 27.562L43.6575 21.8429ZM11.5939 33.366L19.3939 30.8887L16.3645 34.2154L11.5939 33.366ZM10.702 10.7162L20.5547 14.51L14.51 20.5547L10.702 10.7162ZM12.7972 19.4081L9.4563 16.3787L10.3057 11.608L12.7972 19.4081ZM12.7972 24.2919L10.3198 32.092L9.47046 27.3214L12.7972 24.2919ZM21.1351 15.685V21.1493H15.6284L21.1351 15.685ZM21.1351 22.5507V28.015L15.6284 22.5507H21.1351ZM20.5547 29.1333L10.6171 33.0121L14.5384 23.117L20.5547 29.1333ZM8.13978 35.5319L8.83343 30.096L9.52708 34.1305L13.5616 34.8241L8.13978 35.5319ZM3.1002 22.2818L12.6839 22.5932L8.84759 26.5428L3.1002 22.2818ZM8.83343 17.1997L12.6697 21.1493L3.08604 21.4182L8.83343 17.1997ZM13.5757 8.86175L9.54124 9.5554L8.84759 13.5899L8.15394 8.15394L13.5757 8.86175ZM16.3645 9.48462L19.3939 12.8255L11.5939 10.334L16.3645 9.48462ZM21.4041 3.11435L21.0927 12.6981L17.1431 8.86175L21.4041 3.11435ZM21.4041 40.5857L17.1431 34.8524L21.0927 31.0161L21.4041 40.5857ZM34.8241 26.5428L30.9878 22.5932L40.5715 22.2818L34.8241 26.5428ZM22.5224 28.0575V22.5507H27.9867L22.5224 28.0575ZM29.1192 23.1736L32.998 33.0971L23.0745 29.2183L29.1192 23.1736ZM22.5224 21.1493V15.685L27.9867 21.1493H22.5224ZM23.117 14.5525L32.9555 10.7162L29.1617 20.5689L23.117 14.5525ZM33.3519 11.608L34.2012 16.3787L30.8604 19.4081L33.3519 11.608ZM30.8604 24.2919L34.2012 27.3214L33.3519 32.092L30.8604 24.2919ZM30.096 34.8383L34.1305 34.1446L34.8241 30.1101L35.5178 35.5461L30.096 34.8383ZM27.293 34.2154L24.2636 30.8745L32.0637 33.3519L27.293 34.2154ZM22.2535 40.5857L22.5649 31.0444L26.5145 34.8807L22.2535 40.5857ZM26.5286 8.86175L22.5649 12.6981L22.2535 3.11435L26.5286 8.86175ZM32.0637 10.334L24.2636 12.8113L27.293 9.47046L32.0637 10.334ZM35.5178 8.15394L34.8241 13.5899L34.1305 9.5554L30.096 8.86175L35.5178 8.15394ZM40.5573 21.4607L31.0161 21.1493L34.8524 17.1997L40.5573 21.4607ZM48.6263 33.1678C48.2017 33.5925 48.0035 34.1729 48.0035 34.7958C47.9327 35.9991 48.8245 37.0042 50.0136 37.0891C50.1269 37.0891 50.2118 37.0891 50.3251 37.0891C50.9904 37.1316 51.6416 36.8909 52.1512 36.4238C52.3494 36.2256 52.4627 36.0415 52.5759 35.8009L51.2594 35.1072C51.1886 35.3337 51.0329 35.8009 50.4808 35.8009C49.8155 35.8009 49.7447 35.178 49.7447 34.8383C49.7447 34.2154 50.0136 33.7199 50.5233 33.7199C50.8772 33.7199 51.1886 33.9889 51.2594 34.3428L52.5759 33.6067C52.5051 33.451 52.3777 33.2952 52.222 33.182C51.7549 32.7148 51.1037 32.4883 50.4383 32.5167C49.7588 32.5167 49.136 32.7432 48.6263 33.1678ZM50.948 26.1181C50.6365 26.1889 50.3251 26.2738 50.0136 26.3163C49.2351 26.387 48.7679 26.472 48.3857 26.8542C48.1592 27.0807 48.0035 27.3921 48.0035 27.746C48.0035 28.4397 48.4706 29.105 49.5607 29.105C50.0703 29.1475 50.5657 28.9918 50.9904 28.6803V28.9918H52.7033C52.5901 28.8361 52.5051 28.6379 52.5476 28.4822V26.1889C52.5476 25.6792 52.5476 24.6317 50.495 24.6317C49.957 24.5892 49.4474 24.7025 48.9378 24.9007C48.5131 25.0988 48.2017 25.5235 48.1592 26.019L49.7872 25.9765C49.8296 25.6651 49.9429 25.5943 50.3251 25.5943C50.8772 25.6085 50.948 25.8066 50.948 26.1181ZM50.948 27.0524C50.948 27.2506 50.9055 27.4063 50.8347 27.562C50.679 27.831 50.3676 28.0292 50.0136 28.0292C49.7022 28.0292 49.589 27.831 49.589 27.7177C49.589 27.6753 49.589 27.4912 49.9429 27.3355C50.0986 27.293 50.2543 27.2647 50.41 27.2223C50.5657 27.1798 50.7639 27.109 50.9196 27.0665L50.948 27.0524ZM58.2525 32.8281H57.6297V33.7199H58.2101L58.1676 35.7726C58.1251 36.084 58.2384 36.3954 58.479 36.6219C58.7905 36.8484 59.2151 37.0042 59.5974 36.9758C59.9513 36.9758 60.3335 36.9334 60.6874 36.9051V35.7443C60.5741 35.7443 60.4892 35.7867 60.3759 35.7867C59.9088 35.7867 59.9088 35.5178 59.9088 35.362V33.7341H60.6874V32.8422H59.9513V31.5257H58.2101L58.2525 32.8281ZM62.6268 23.2869H60.8856V24.4052H62.5985L62.6268 23.2869ZM62.6268 24.8016H60.8856V28.9776H62.5985L62.6268 24.8016ZM61.3103 34.7675C61.0838 34.994 60.928 35.3054 60.928 35.6593C60.928 36.353 61.3952 37.0183 62.4852 37.0183C62.9948 37.0608 63.4903 36.9051 63.915 36.5936V36.9051H65.6279C65.5146 36.7493 65.4297 36.5512 65.4722 36.3954V34.1021C65.4722 33.5925 65.4722 32.545 63.4195 32.545C62.8816 32.5025 62.372 32.6158 61.8623 32.8139C61.4377 33.0121 61.1262 33.4368 61.0838 33.9323L62.7117 33.8898C62.7542 33.5784 62.8674 33.5076 63.2496 33.5076C63.7593 33.5076 63.83 33.7058 63.83 33.9747C63.5186 34.0455 63.2072 34.1305 62.8957 34.1729C62.1596 34.3003 61.6925 34.3711 61.3103 34.7675ZM62.556 35.6169C62.556 35.5744 62.556 35.3904 62.9099 35.2346C63.0656 35.1922 63.2213 35.1639 63.3346 35.1214C63.5328 35.0789 63.6885 35.0081 63.8442 34.9657C63.8442 35.1214 63.8442 35.3196 63.7734 35.4753C63.6177 35.7443 63.3063 35.9424 62.9524 35.9424C62.6692 35.9283 62.556 35.6876 62.556 35.6169ZM64.7643 19.6346C64.6086 19.4789 64.5379 19.2524 64.5662 19.0542H67.5956C67.5531 18.3888 67.5531 17.6952 66.9302 17.1148C66.4631 16.6901 65.8119 16.4494 65.189 16.4919C63.7876 16.4919 62.7825 17.3837 62.7825 18.7427C62.7825 19.9035 63.5611 21.036 65.189 21.036C66.1233 21.0785 67.0152 20.6538 67.5106 19.8752L66.0809 19.2948C65.9676 19.6063 65.6562 19.8328 65.3023 19.8328C65.1041 19.8328 64.9201 19.7478 64.7643 19.6346ZM64.5662 18.1623C64.6086 17.8084 64.8776 17.5395 65.2315 17.5395C65.5005 17.5395 65.7411 17.6952 65.8119 17.9641C65.8119 18.0349 65.8544 18.0774 65.8544 18.1623H64.5662ZM68.0627 20.8378H69.8039V15.1046H68.0627V20.8378ZM67.8645 32.7007H66.2366V36.9334H67.9778V34.6825C67.9778 34.456 67.9778 33.9889 68.6007 33.9889C69.2235 33.9889 69.1811 34.4136 69.1811 34.6118V36.9051H70.894V34.2154C70.9364 33.7482 70.7807 33.2811 70.4693 32.9413C70.1578 32.6724 69.7332 32.5167 69.3085 32.5591C68.7281 32.4883 68.1901 32.7573 67.8787 33.2245V32.7007H67.8645ZM73.3713 31.2001H71.6301V32.3185H73.3713C73.3713 32.276 73.3713 31.2001 73.3713 31.2001ZM73.3713 32.7007H71.6301V36.9334H73.3713V32.7007ZM74.3056 34.7675C74.0791 34.994 73.9234 35.3479 73.9517 35.6593C73.9517 36.353 74.4188 37.0183 75.5089 37.0183C76.0185 37.0608 76.5139 36.9051 76.9386 36.5936V36.9051H78.6515C78.5383 36.7493 78.4533 36.5512 78.4958 36.3954V34.1021C78.4958 33.5925 78.4958 32.545 76.4432 32.545C75.9052 32.545 75.3956 32.6158 74.886 32.8139C74.4613 33.0121 74.1499 33.4368 74.1074 33.9323L75.7354 33.8898C75.8061 33.5784 75.8911 33.5076 76.2733 33.5076C76.7829 33.5076 76.8537 33.7058 76.8537 33.9747C76.5423 34.0455 76.2308 34.1305 75.9194 34.1729C75.155 34.3003 74.6878 34.3711 74.3056 34.7675ZM75.5089 35.6169C75.5089 35.5744 75.5089 35.3904 75.8628 35.2346C76.0185 35.1922 76.1742 35.1639 76.2875 35.1214C76.4432 35.0789 76.6414 35.0081 76.7971 34.9657C76.7971 35.1214 76.7971 35.3196 76.7263 35.4753C76.5706 35.7443 76.2591 35.9424 75.9477 35.9424C75.6363 35.9424 75.5372 35.7301 75.5089 35.6169Z" fill="#F9F5F1"/>
</svg>
