<svg xmlns="http://www.w3.org/2000/svg" width="94" height="44" fill="none" viewBox="0 0 94 44">
  <path fill="#F9F5F1" d="M93.303 12.344c-.113-.156-.198-.354-.156-.51V9.556c0-.51 0-1.557-2.052-1.557-.538-.042-1.048.071-1.557.27a1.37 1.37 0 0 0-.779 1.118l1.628-.043c.07-.269.156-.382.538-.382.51 0 .58.198.58.467-.311.07-.623.156-.934.198-.779.113-1.246.156-1.628.538-.227.227-.382.58-.354.892 0 .694.467 1.359 1.557 1.359.51.042 1.005-.113 1.43-.382v.311zm-1.784-1.94c0 .156 0 .355-.07.51-.156.27-.468.468-.779.468s-.425-.199-.425-.312c0-.042 0-.226.354-.382.156-.043.312-.07.425-.113.142-.057.34-.128.495-.17m-5.152 1.94h1.74v-4.19h-1.74zm0-4.615h1.74V6.611h-1.74zm-2.45 4.615h1.713V9.711c.043-.467-.113-.892-.424-1.246a2 2 0 0 0-1.204-.424c-1.004 0-1.4.51-1.514.778-.156-.354-.467-.58-.85-.665a2.1 2.1 0 0 0-.665-.113c-.538-.043-1.09.226-1.359.693v-.58h-1.67v4.19h1.74v-2.279c0-.156.043-.354.157-.467.113-.113.311-.198.467-.156.269-.042.51.156.58.425 0 .07.043.155.043.226v2.294h1.74v-2.294a.58.58 0 0 1 .51-.665h.156c.58 0 .623.467.623.736zm-9.427-1.783h3.029c-.042-.623-.042-1.36-.665-1.94a2.4 2.4 0 0 0-1.742-.623c-1.401 0-2.406.892-2.406 2.251 0 1.16.778 2.293 2.406 2.293a2.56 2.56 0 0 0 2.294-1.16l-1.43-.58a.83.83 0 0 1-.779.537.72.72 0 0 1-.51-.198 1.06 1.06 0 0 1-.197-.58m0-.892c0-.354.311-.623.665-.623.269 0 .51.155.58.424 0 .071 0 .114.043.199zm-1.784 9.045c0 1.161.778 2.294 2.406 2.294.935.042 1.827-.383 2.322-1.161l-1.43-.58a.83.83 0 0 1-.778.537.72.72 0 0 1-.51-.198.7.7 0 0 1-.198-.58h3.03c0-.666-.043-1.36-.666-1.94a2.4 2.4 0 0 0-1.741-.622c-1.402 0-2.407.891-2.407 2.25zm1.784-.552c.042-.354.311-.622.665-.622.269 0 .51.155.58.424 0 .07 0 .113.043.198zm-3.992 2.676h1.74v-5.733h-1.74zm.084-8.494h1.671V6.611h-1.755v1.826c-.312-.269-.694-.425-1.119-.382-.934 0-1.897.665-1.897 2.137 0 1.317.694 2.322 1.94 2.322.226 0 .424-.042.665-.113a1 1 0 0 0 .467-.354v.311h.028zm0-2.095c.043.311-.042.58-.226.821a.63.63 0 0 1-.425.198.57.57 0 0 1-.424-.198 1.02 1.02 0 0 1-.227-.821c0-.156 0-.354.043-.51a.626.626 0 0 1 .623-.538c.269 0 .51.227.58.51.014.156.056.354.056.538m-5.081 2.095h1.712c-.113-.156-.198-.354-.155-.51V9.556c0-.51 0-1.557-2.053-1.557-.538-.042-1.047.071-1.557.27a1.37 1.37 0 0 0-.779 1.118l1.628-.043c.071-.269.156-.382.538-.382.51 0 .58.198.58.467-.31.07-.622.156-.934.198-.778.113-1.245.156-1.628.538-.226.227-.382.58-.354.892 0 .694.468 1.359 1.557 1.359.51.042 1.006-.113 1.43-.382v.311zm-.114-1.94c0 .156 0 .355-.07.51-.156.27-.468.468-.78.468-.31 0-.424-.199-.424-.312 0-.042 0-.226.354-.382.156-.043.311-.07.425-.113a5 5 0 0 1 .495-.17M62.4 18.63c0-1.473-.934-2.138-1.897-2.138a1.34 1.34 0 0 0-1.118.425v-1.812h-1.741v5.733h1.67v-.312c.114.156.27.227.425.312.198.07.425.113.665.113 1.26 0 1.996-1.005 1.996-2.322m-1.713.084c.043.312-.042.58-.226.822a.63.63 0 0 1-.425.198.56.56 0 0 1-.58-.51 2 2 0 0 1-.071-.51c-.042-.311.07-.58.227-.82a.63.63 0 0 1 .424-.199c.312 0 .58.227.623.538.028.17.028.326.028.481m-1.245-8.465c0-.623.269-1.118.778-1.118.382 0 .694.269.736.665l1.317-.736a1.1 1.1 0 0 0-.354-.425c-.467-.467-1.118-.693-1.784-.665a2.3 2.3 0 0 0-1.783.665 2.1 2.1 0 0 0-.623 1.628 2.176 2.176 0 0 0 2.01 2.294h.311a2.47 2.47 0 0 0 1.827-.666c.198-.198.31-.382.424-.623l-1.316-.693c-.071.226-.227.693-.779.693-.68-.042-.764-.665-.764-1.019m-.071 13.35h-1.713v1.316h-.58v.892h.58l-.043 2.01c-.042.311.071.623.27.85.31.226.736.381 1.118.353.354 0 .736-.042 1.09-.07v-1.162c-.113.043-.198.043-.312.043-.467 0-.467-.269-.467-.425V25.82h.779v-.892h-.736v-1.33zm-4.615-13.35c0-.623.269-1.118.779-1.118.382 0 .693.269.736.665l1.316-.736a1.1 1.1 0 0 0-.354-.425c-.467-.467-1.118-.693-1.783-.665a2.3 2.3 0 0 0-1.784.665 2.1 2.1 0 0 0-.623 1.628 2.175 2.175 0 0 0 2.01 2.294h.312a2.47 2.47 0 0 0 1.826-.666c.198-.198.311-.382.424-.623l-1.316-.693c-.07.226-.227.693-.779.693-.693-.042-.764-.665-.764-1.019m1.67 14.468a1.75 1.75 0 0 0-1.43.467v-.382h-1.67v4.176h1.713v-1.982c0-.27.042-.892 1.048-.892h.353zm-1.245-8.098h-1.742v4.233h1.742zm0-1.514h-1.742v1.118h1.742zm.467 18.926c-.312.071-.623.156-.934.199-.78.07-1.246.155-1.628.538a1.26 1.26 0 0 0-.383.891c0 .694.467 1.36 1.557 1.36a2.1 2.1 0 0 0 1.43-.425v.311h1.713c-.113-.156-.198-.354-.156-.51v-2.293c0-.51 0-1.557-2.052-1.557-.538 0-1.048.07-1.557.269a1.37 1.37 0 0 0-.779 1.118l1.628-.042c.07-.312.156-.382.538-.382.538.056.623.24.623.523m0 .92c0 .156 0 .354-.071.51a.96.96 0 0 1-.821.467c-.312 0-.425-.198-.425-.311 0-.043 0-.227.354-.382.156-.043.312-.071.425-.114.184-.042.382-.127.538-.17m-4.573-14.113h1.67v-5.733h-1.74v1.826a1.7 1.7 0 0 0-1.119-.425c-.934 0-1.897.665-1.897 2.138 0 1.316.694 2.321 1.94 2.321.226 0 .424-.042.665-.113.198-.043.354-.156.425-.311zm0-2.124c.043.312-.042.58-.226.822a.63.63 0 0 1-.425.198.57.57 0 0 1-.425-.199 1.02 1.02 0 0 1-.226-.82c0-.156 0-.355.042-.51a.586.586 0 0 1 .694-.51c.227.043.467.227.51.467.014.198.056.397.056.552m-.042-6.37h1.713c-.114-.156-.198-.354-.156-.51V9.556c0-.51 0-1.557-2.053-1.557-.538-.042-1.047.071-1.557.27a1.37 1.37 0 0 0-.778 1.118l1.628-.043c.042-.269.155-.382.538-.382.51 0 .58.198.58.467-.312.07-.623.156-.934.198-.779.113-1.246.156-1.628.538a1.26 1.26 0 0 0-.383.892c0 .694.468 1.359 1.558 1.359.51.042 1.005-.113 1.43-.382zm-.113-1.94c0 .156 0 .355-.071.51-.156.312-.467.468-.821.468-.312 0-.425-.199-.425-.312 0-.042 0-.226.354-.382.156-.043.312-.07.425-.113.141-.057.34-.128.538-.17m-7.263 11.439-8.068-5.705 1.67-9.74-9.74 1.671L21.816 0 16.11 8.069 6.399 6.413l1.67 9.74L0 21.856l8.069 5.705-1.67 9.74 9.739-1.671 5.705 8.069 5.705-8.069 9.74 1.67-1.671-9.739zM11.594 33.366l7.8-2.477-3.03 3.326zm-.892-22.65 9.853 3.794-6.045 6.045zm2.095 8.692-3.34-3.03.849-4.77zm0 4.884-2.477 7.8-.85-4.77zm8.338-8.607v5.464h-5.507zm0 6.866v5.464l-5.507-5.464zm-.58 6.582-9.938 3.88 3.921-9.896zM8.14 35.532l.693-5.436.694 4.034 4.035.694zM3.1 22.282l9.584.311-3.836 3.95zM8.833 17.2l3.837 3.95-9.584.268zm4.743-8.338-4.035.693-.693 4.035-.694-5.436zm2.788.623 3.03 3.34-7.8-2.491zm5.04-6.37-.311 9.583-3.95-3.836zm0 37.47-4.26-5.733 3.949-3.836zm13.42-14.042-3.836-3.95 9.584-.311zm-12.302 1.515V22.55h5.465zm6.597-4.884 3.879 9.923-9.923-3.879zm-6.597-2.025v-5.464l5.465 5.464zm.595-6.597 9.839-3.836-3.794 9.853zm10.235-2.944.85 4.77-3.342 3.03zM30.86 24.292l3.341 3.03-.85 4.77zm-.764 10.546 4.034-.693.694-4.035.694 5.436zm-2.803-.623-3.03-3.34 7.8 2.477zm-5.04 6.37.312-9.54 3.95 3.836zM26.53 8.863l-3.964 3.836-.312-9.584zm5.535 1.472-7.8 2.477 3.029-3.34zm3.454-2.18-.694 5.436-.694-4.035-4.034-.693zm5.04 13.307-9.542-.312 3.836-3.95zm8.068 11.707c-.424.425-.622 1.005-.622 1.628a2.156 2.156 0 0 0 2.01 2.293h.311a2.47 2.47 0 0 0 1.826-.665 2 2 0 0 0 .425-.623l-1.317-.694c-.07.227-.226.694-.778.694-.666 0-.736-.623-.736-.963 0-.623.269-1.118.778-1.118a.77.77 0 0 1 .736.623l1.317-.736a1.1 1.1 0 0 0-.354-.425c-.467-.467-1.118-.694-1.784-.665a2.8 2.8 0 0 0-1.812.65m2.322-7.05c-.312.07-.623.156-.934.198-.779.071-1.246.156-1.628.538a1.26 1.26 0 0 0-.383.892c0 .694.468 1.359 1.558 1.359a2.1 2.1 0 0 0 1.43-.425v.312h1.712c-.113-.156-.198-.354-.155-.51V26.19c0-.51 0-1.557-2.053-1.557-.538-.043-1.048.07-1.557.269a1.37 1.37 0 0 0-.779 1.118l1.628-.042c.043-.312.156-.383.538-.383.552.014.623.213.623.524m0 .934c0 .199-.042.354-.113.51a.96.96 0 0 1-.821.467c-.312 0-.425-.198-.425-.311 0-.043 0-.227.354-.383.156-.042.311-.07.467-.113s.354-.113.51-.155zm7.304 5.776h-.622v.892h.58l-.042 2.053a.98.98 0 0 0 .311.849c.312.226.736.382 1.118.354.354 0 .736-.043 1.09-.07v-1.162c-.113 0-.198.043-.311.043-.467 0-.467-.27-.467-.425v-1.628h.778v-.892h-.736v-1.316h-1.74zm4.375-9.541h-1.741v1.118h1.712zm0 1.515h-1.741v4.176h1.712zm-1.317 9.965a1.26 1.26 0 0 0-.382.892c0 .694.467 1.36 1.557 1.36a2.1 2.1 0 0 0 1.43-.425v.311h1.713c-.113-.156-.198-.354-.156-.51v-2.293c0-.51 0-1.557-2.052-1.557-.538-.043-1.048.07-1.558.269a1.37 1.37 0 0 0-.778 1.118l1.628-.042c.042-.312.155-.382.538-.382.51 0 .58.198.58.467-.311.07-.623.155-.934.198-.736.127-1.203.198-1.586.594m1.246.85c0-.043 0-.227.354-.382.156-.043.311-.071.425-.114.198-.042.353-.113.51-.155 0 .155 0 .354-.072.51a.96.96 0 0 1-.82.466c-.284-.014-.397-.254-.397-.325m2.208-15.982a.7.7 0 0 1-.198-.58h3.03c-.043-.666-.043-1.36-.666-1.94a2.4 2.4 0 0 0-1.741-.623c-1.401 0-2.406.892-2.406 2.25 0 1.162.778 2.294 2.406 2.294.934.042 1.826-.382 2.322-1.16l-1.43-.581a.83.83 0 0 1-.779.538.93.93 0 0 1-.538-.198m-.198-1.473c.043-.354.312-.622.665-.622.27 0 .51.155.58.424 0 .07.043.113.043.198zm3.497 2.676h1.74v-5.733h-1.74zM67.865 32.7h-1.628v4.232h1.74v-2.25c0-.227 0-.694.624-.694.623 0 .58.425.58.623v2.293h1.713v-2.69a1.67 1.67 0 0 0-.425-1.274 1.57 1.57 0 0 0-1.16-.382 1.49 1.49 0 0 0-1.43.666V32.7zm5.506-1.5h-1.74v1.117h1.74zm0 1.5h-1.74v4.232h1.74zm.935 2.066c-.227.227-.383.58-.354.892 0 .694.467 1.36 1.557 1.36a2.1 2.1 0 0 0 1.43-.425v.311h1.713c-.114-.156-.199-.354-.156-.51v-2.293c0-.51 0-1.557-2.053-1.557-.538 0-1.047.07-1.557.269a1.37 1.37 0 0 0-.779 1.118l1.628-.042c.071-.312.156-.382.538-.382.51 0 .58.198.58.467-.31.07-.622.155-.934.198-.764.127-1.231.198-1.613.594m1.203.85c0-.043 0-.227.354-.382.156-.043.311-.071.424-.114.156-.042.354-.113.51-.155 0 .155 0 .354-.07.51-.156.268-.468.466-.78.466a.42.42 0 0 1-.438-.325"/>
</svg>
