<svg xmlns="http://www.w3.org/2000/svg" width="214" height="42" fill="none" viewBox="0 0 214 42">
  <path fill="#F9F5F1" d="M98.99 37.062A15.86 15.86 0 0 0 110.532 42c8.618 0 16.686-6.386 18.809-8.194.09-.063.18-.135.261-.216.009-.01.018-.01.018-.01 1.961-1.708 5.298-5.675 5.667-13.042.324-6.459-2.312-9.859-4.893-10.884-1.448-.576-2.888-.37-3.652.54-.369.431-1.08 1.654.162 3.741a6.56 6.56 0 0 1-1.161 8.357 64 64 0 0 0-5.586-6.387c-6.746-6.746-14.968-12.17-17.639-9.499a1.3 1.3 0 0 0-.189.243l-.054.054c-.216.243-.495.585-.819.99a8.65 8.65 0 0 0-4.803-2.753 5.73 5.73 0 0 0-4.956 1.8 7.85 7.85 0 0 0-2.222 7.537 10.1 10.1 0 0 0 2.761 4.768c.72.71 1.52 1.34 2.384 1.852-1.241 5.236-.72 11.083 4.372 16.165m-4.03-25.924a1.33 1.33 0 0 1 .756-.693c.288-.08.603-.045.864.108.684.423 1.277.98 1.736 1.646a36 36 0 0 0-1.835 3.445c-1.214-1.025-2.447-2.743-1.52-4.506m5.11 24.835c-9.229-9.229-1.88-21.426 1.898-26.445a10 10 0 0 0 .531 1.664c1.421 3.508 4.974 8.311 9.508 12.845l.512.504c4.579 4.48 10.255 8.716 14.006 9.534-5.019 3.778-17.226 11.127-26.455 1.898M104.4 11.66a7.56 7.56 0 0 1 5.829 2.977c1.043 1.394 1.034 3.14 1.034 4.821 0 .54 0 1.08.036 1.62a42.8 42.8 0 0 1-6.899-9.418m23.819 1.475c-.513-.855-.63-1.592-.315-1.961a1.78 1.78 0 0 1 1.916-.108c1.988.791 4.21 3.724 3.922 9.382-.342 6.791-3.373 10.416-5.145 11.963-.018.01-.018.027-.036.045-.009.018-.045.018-.054.036a1 1 0 0 0-.117.072c-.783.405-2.753-.126-5.478-1.727a11.3 11.3 0 0 0 6.071-3.715.74.74 0 0 0 .144-.764.76.76 0 0 0-.602-.495.78.78 0 0 0-.729.288 10.32 10.32 0 0 1-6.791 3.48 49 49 0 0 1-4.534-3.534c.396.054.801.09 1.251.117a12.45 12.45 0 0 0 8.338-2.222l.009-.01c3.481-2.473 4.417-7.231 2.15-10.847m-9.148 3.84a62 62 0 0 1 5.451 6.225 11.5 11.5 0 0 1-6.71 1.485c-2.06-.108-3.419-.531-4.147-1.287-.873-.9-.873-2.303-.864-3.94 0-1.844.009-3.94-1.34-5.748a9.34 9.34 0 0 0-7.718-3.607c-.576-1.619-.36-2.293-.234-2.51l.018-.035a.4.4 0 0 1 .072-.09c1.251-1.224 7.736 1.78 15.472 9.508m-25.753.99a8.6 8.6 0 0 1-2.348-4.039 6.35 6.35 0 0 1 1.826-6.107 4.26 4.26 0 0 1 3.67-1.368 7.36 7.36 0 0 1 4.057 2.456 48 48 0 0 0-1.331 1.916 6.4 6.4 0 0 0-1.862-1.62 2.6 2.6 0 0 0-2.042-.224 2.8 2.8 0 0 0-1.664 1.44c-1.323 2.482.17 5.108 2.248 6.683a26 26 0 0 0-.8 2.257 9.4 9.4 0 0 1-1.754-1.394"/>
  <path fill="#F9F5F1" d="M102.256 26.24c-2.69 2.681-3.175 6.567-1.089 8.663.252.243.531.459.837.63.009.009.027.009.036.018.756.431 1.61.647 2.474.638a7.7 7.7 0 0 0 5.307-2.383c2.689-2.68 3.175-6.567 1.088-8.663s-5.973-1.583-8.653 1.098m1.088 1.09a6.23 6.23 0 0 1 4.219-1.953c.351 0 .702.054 1.043.162a4.4 4.4 0 0 0-.431 1.502 2.343 2.343 0 0 1-2.231 2.231 3.86 3.86 0 0 0-3.535 3.535 2.9 2.9 0 0 1-.234.909c-1.385-1.52-.873-4.354 1.169-6.387m5.397 5.405c-1.61 1.61-3.697 2.267-5.262 1.8.234-.468.387-.981.441-1.512a2.343 2.343 0 0 1 2.231-2.23 3.86 3.86 0 0 0 3.535-3.536 2.9 2.9 0 0 1 .234-.908c1.376 1.52.872 4.344-1.179 6.386m14.168-24.97c.297.072.594.117.899.117a2.5 2.5 0 0 0 1.773-.675 2.73 2.73 0 0 0 .557-2.672 6.2 6.2 0 0 0-1.646-2.752A6.2 6.2 0 0 0 121.74.137a2.73 2.73 0 0 0-2.672.558 2.73 2.73 0 0 0-.558 2.671 6.2 6.2 0 0 0 1.646 2.753 6 6 0 0 0 2.753 1.646m-2.753-5.982a.94.94 0 0 1 .684-.225c.18 0 .36.027.54.072a4.67 4.67 0 0 1 2.042 1.241 4.57 4.57 0 0 1 1.241 2.042 1.3 1.3 0 0 1-.153 1.215 1.27 1.27 0 0 1-1.214.153 4.67 4.67 0 0 1-2.042-1.242 4.6 4.6 0 0 1-1.241-2.033 1.24 1.24 0 0 1 .143-1.223M65.463 23.389q0-2.366.88-4.153.908-1.788 2.448-2.75 1.54-.963 3.438-.963 1.623 0 2.833.66 1.238.66 1.898 1.733v-2.173h4.703V31.09H76.96v-2.173q-.688 1.073-1.925 1.733-1.21.66-2.833.66a6.3 6.3 0 0 1-3.41-.963q-1.541-.99-2.448-2.778-.88-1.815-.88-4.18m11.497.027q0-1.76-.99-2.778a3.13 3.13 0 0 0-2.365-1.017q-1.404 0-2.393 1.017-.963.99-.963 2.75t.963 2.806q.99 1.018 2.392 1.018 1.404 0 2.366-1.018.99-1.017.99-2.778M58.13 31.31q-2.007 0-3.575-.688-1.567-.687-2.475-1.87a5.03 5.03 0 0 1-1.017-2.695h4.648q.082.797.742 1.292t1.623.495q.88 0 1.348-.33.495-.357.495-.907 0-.66-.688-.963-.686-.33-2.228-.715-1.65-.386-2.75-.798a4.94 4.94 0 0 1-1.898-1.347q-.797-.936-.797-2.503 0-1.32.715-2.393.743-1.1 2.145-1.733 1.43-.633 3.383-.632 2.888 0 4.538 1.43 1.678 1.43 1.925 3.795H59.92q-.11-.797-.715-1.265-.579-.467-1.54-.467-.825 0-1.266.33a.98.98 0 0 0-.44.852q0 .66.688.99.715.33 2.2.66 1.706.44 2.778.88 1.072.413 1.87 1.376.825.935.853 2.53 0 1.348-.77 2.42-.743 1.046-2.173 1.65-1.403.606-3.273.606m-8.797-15.568v15.347H44.63v-2.09q-.714 1.017-1.952 1.65-1.21.605-2.696.605-1.76 0-3.108-.77-1.347-.798-2.09-2.283t-.742-3.493v-8.966h4.675v8.334q0 1.54.798 2.392.798.853 2.145.853 1.375 0 2.173-.853.797-.853.797-2.392v-8.334zm-33.933 7.647q0-2.366.88-4.153.907-1.788 2.448-2.75 1.54-.963 3.438-.963 1.623 0 2.833.66 1.238.66 1.898 1.733v-2.173h4.703V31.09h-4.703v-2.173q-.688 1.073-1.925 1.733-1.21.66-2.833.66a6.3 6.3 0 0 1-3.41-.963q-1.542-.99-2.449-2.778-.88-1.815-.88-4.18m11.497.027q0-1.76-.99-2.778a3.13 3.13 0 0 0-2.366-1.017q-1.402 0-2.392 1.017-.963.99-.963 2.75t.963 2.806q.99 1.018 2.392 1.018 1.404 0 2.366-1.018.99-1.017.99-2.778m-12.184-5.42q0 1.678-.77 3.08-.771 1.376-2.366 2.228t-3.96.853H4.703v6.93H0V11.78h7.619q2.31 0 3.905.798 1.596.798 2.393 2.2t.797 3.218m-7.454 2.42q1.348 0 2.008-.632.66-.633.66-1.788t-.66-1.788-2.008-.632H4.703v4.84zM214 23.167q0 .66-.083 1.375h-10.644q.11 1.43.908 2.2.825.743 2.008.743 1.76 0 2.448-1.485h5.005a6.8 6.8 0 0 1-1.403 2.723q-.99 1.21-2.502 1.897-1.513.688-3.383.688-2.256 0-4.016-.963a6.85 6.85 0 0 1-2.75-2.75q-.99-1.788-.99-4.18 0-2.394.962-4.181a6.85 6.85 0 0 1 2.751-2.75q1.76-.963 4.043-.963 2.227 0 3.96.935a6.63 6.63 0 0 1 2.696 2.668q.99 1.733.99 4.043m-4.813-1.238q0-1.21-.826-1.925-.825-.715-2.062-.715-1.183 0-2.008.688-.798.687-.99 1.952zm.33-10.589v3.246l-6.629-2.778V8.15zm-11.369 8.306h-2.53v11.441h-4.703V19.646h-1.706V15.74h1.706v-.44q0-2.833 1.622-4.29 1.623-1.486 4.759-1.486.522 0 .77.028v3.988q-1.348-.083-1.898.385t-.55 1.678v.137h2.53z"/>
  <path fill="#F9F5F1" d="M190.062 19.646h-2.53v11.441h-4.703V19.645h-1.705V15.74h1.705v-.44q0-2.833 1.622-4.29 1.623-1.485 4.759-1.486.522 0 .77.028v3.988q-1.348-.083-1.898.385-.55.467-.55 1.677v.138h2.53zm-26.478 3.743q0-2.366.88-4.153.907-1.788 2.448-2.75 1.54-.963 3.438-.963 1.623 0 2.833.66 1.237.66 1.898 1.733v-2.173h4.703V31.09h-4.703v-2.173q-.689 1.073-1.926 1.733-1.21.66-2.833.66a6.3 6.3 0 0 1-3.41-.963q-1.54-.99-2.448-2.778-.88-1.815-.88-4.18m11.497.027q0-1.76-.991-2.778a3.13 3.13 0 0 0-2.365-1.017q-1.403 0-2.393 1.017-.962.99-.962 2.75t.962 2.806q.99 1.018 2.393 1.018t2.365-1.018q.99-1.017.991-2.778m-31.484-2.009q0-2.86 1.237-5.088 1.238-2.255 3.438-3.493 2.228-1.265 5.033-1.265 3.438 0 5.886 1.815t3.273 4.95h-5.17q-.579-1.209-1.651-1.842-1.044-.633-2.393-.632-2.173 0-3.52 1.512t-1.348 4.043 1.348 4.043q1.347 1.513 3.52 1.513 1.349 0 2.393-.633 1.072-.632 1.651-1.842h5.17q-.825 3.135-3.273 4.95-2.448 1.788-5.886 1.788-2.805 0-5.033-1.238a9 9 0 0 1-3.438-3.492q-1.237-2.229-1.237-5.089"/>
</svg>
